<?xml version="1.0" standalone="no"?>
<!DOCTYPE svg PUBLIC "-//W3C//DTD SVG 1.1//EN" "http://www.w3.org/Graphics/SVG/1.1/DTD/svg11.dtd" >
<!--
2013-9-30: Created.
-->
<svg>
<metadata>
Created by iconfont
</metadata>
<defs>

<font id="giligili" horiz-adv-x="1024" >
  <font-face
    font-family="giligili"
    font-weight="500"
    font-stretch="normal"
    units-per-em="1024"
    ascent="896"
    descent="-128"
  />
    <missing-glyph />
    
    <glyph glyph-name="baidu" unicode="&#58880;" d="M182.0002 276.3994c108.0399 23.2122 93.3366 152.3386 90.0901 180.5509-5.2988 43.5176-56.4651 119.5745-125.9573 113.5675-87.4382-7.8369-100.203-134.1666-100.203-134.1666C34.0984 377.9842 74.2188 253.2197 182.0002 276.3994zM296.7217 51.8812c-3.1728-9.1097-10.2265-32.3181-4.1071-52.5474 12.0565-45.3426 51.4287-47.3986 51.4287-47.3986h56.57754211088418V90.24747305676453h-60.56847351557962C312.8091 82.107 299.6684 60.9484 296.7217 51.8812zM382.5236 492.9308c59.6741 0 107.8938 68.6672 107.8938 153.6077C490.4174 731.3291 442.1989 800 382.5236 800c-59.5667 0-107.9313-68.6709-107.9313-153.4615C274.5923 561.598 322.9582 492.9308 382.5236 492.9308zM639.5121 482.7781c79.7524-10.3351 131.03 74.7903 141.2215 139.2779 10.4114 64.4152-41.0535 139.2792-97.5186 152.1162-56.575 12.9907-127.2239-77.6245-133.6419-136.7372C541.8835 565.1829 559.9071 493.0395 639.5121 482.7781zM834.9216 103.6054c0 0-123.3829 95.4655-195.4095 198.6167-97.6273 152.1525-236.3506 90.243-282.7391 12.8783-46.2036-77.3659-118.1978-126.2922-128.4193-139.2429-10.3764-12.7646-149.061-87.6273-118.2702-224.3683 30.7908-136.6635 138.9081-134.0517 138.9081-134.0517s79.6787-7.8406 172.1197 12.8358c92.4797 20.5253 172.0847-5.1126 172.0847-5.1126s216.0124-72.3245 275.1257 66.9134C927.365 31.3571 834.9216 103.6054 834.9216 103.6054zM465.3339-103.6701H324.8980407587141c-60.6409 12.0901-84.7914 53.5192-87.8517 60.5355-2.9866 7.1624-20.1895 40.4523-11.0834 97.0306 26.2002 84.7906 100.9512 90.9125 100.9512 90.9125h74.75095713652233v91.88430272355265l63.6688-0.9731V-103.67012586000999zM726.8779-102.6996H565.282019573676c-62.6245 16.1597-65.5712 60.6441-65.5712 60.6441V136.6717796775306l65.5712 1.043v-160.62390390870527c3.9897-17.094 25.2672-20.2255 25.2672-20.2255h66.57797930211788V136.6717796775306h69.75198765871603V-102.69956980758752zM955.6513 374.4755c0 30.8642-25.6381 123.7915-120.7285 123.7915-95.2427 0-107.9712-87.7048-107.9712-149.6905 0-59.1889 5.004-141.8174 123.3104-139.1705C968.6047 212.0204 955.6513 343.4252 955.6513 374.4755z"  horiz-adv-x="1000" />

    
    <glyph glyph-name="message" unicode="&#58881;" d="M464.257692-32.83047699999997c-30.464081 27.469632-62.710836 56.138578-96.757662 86.001723-34.040686 29.858028-65.694922 57.332776-94.963731 82.415035-34.040686 28.667923-68.082396 57.034994-102.129222 85.104283-6.569902-0.595564-13.139803-0.89744-19.705611-0.89744-5.376676-0.594541-11.050124-0.892323-17.026483-0.892323l-15.226412 0c-16.129006 0-29.264716 4.925173-39.417363 14.780635-10.15367 9.855462-15.232552 21.648043-15.232552 35.383882L63.798656 494.816898l0.897477 0-0.897477 0.89744c0 16.72287 5.227267 30.457686 15.677709 41.209564 10.450442 10.747785 23.442882 16.123212 38.972206 16.123212l51.062053 0c54.947709 46.586015 104.819607 88.390119 149.613646 125.417431 19.111045 16.124236 37.925319 31.801287 56.437706 47.031153 18.517503 15.231913 35.240051 29.115108 50.169692 41.656749 14.934757 12.540617 27.475901 22.994714 37.628548 31.354102 10.152647 8.362458 16.421684 13.438057 18.814274 15.230889 17.91782 13.141298 32.400257 19.111267 43.445265 17.917068 11.051147-1.194198 19.711751-6.569626 25.984882-16.127306 6.268014-9.552563 10.597804-21.197788 12.987324-34.936697 2.388497-13.735839 3.582745-26.276457 3.582745-37.622876l0-725.628472c0-11.347442-2.086609-23.441898-6.268014-36.283368-4.182428-12.8384-10.603944-22.991644-19.260454-30.458709-8.661627-7.467065-19.562342-10.597359-32.704192-9.404184C496.807359-57.614953000000014 481.57583-48.95778299999995 464.257692-32.83047699999997zM753.623991 499.295909c12.541144-17.316387 22.545405-34.787294 30.012784-52.40658 7.462262-17.615193 11.19851-38.97057 11.19851-64.052828 0-23.887037-3.884633-45.3867-11.649807-64.501036-7.76415-19.111267-17.614909-36.428677-29.561487-51.957349-4.776994-6.569626-9.855876-12.391215-15.232552-17.469883-5.370536-5.073552-12.243349-7.611352-20.603088-7.611352-10.75233 0-19.859114 3.880377-27.322399 11.643178-7.467379 7.764847-11.19851 17.020652-11.19851 27.77253 0 4.776793 0.891337 9.552563 2.685268 14.334473l-0.897477 0c2.98818 6.569626 6.569902 12.8384 10.75233 18.809391 4.181405 5.975085 8.21033 12.094456 12.094964 18.367323 3.879517 6.268774 7.164467 13.438057 9.849736 21.49864 2.691408 8.06263 4.034042 17.768689 4.034042 29.115108 0 10.751878-1.342634 20.156062-4.034042 28.218692-2.685268 8.061606-5.971242 15.379269-9.849736 21.948895-3.884633 6.569626-7.913559 12.8384-12.094964 18.813484-4.182428 5.970992-7.467379 12.243859-9.855876 18.809391-1.793931 4.181229-2.685268 8.958022-2.685268 14.334473 0 10.750855 3.731131 20.007683 11.19851 27.770484 7.462262 7.764847 16.569046 11.645225 27.322399 11.645225 8.359739 0 15.232552-2.537799 20.603088-7.611352C743.768115 511.689171 748.846997 505.866558 753.623991 499.295909zM803.793683 97.065965c-7.170607-5.376451-15.529323-8.061606-25.087404-8.061606-11.942485 0-22.243517 4.330632-30.904121 12.987802-8.661627 8.66024-12.992441 18.961864-12.992441 30.90794 0 13.140275 5.078882 24.185842 15.232552 33.143864 0.594566 0.598634 1.193225 1.044796 1.788814 1.346671 0.600706 0.297782 1.195272 0.743944 1.793931 1.342578l0.897477 0.89744c16.722548 11.346419 32.252895 24.784476 46.58183 40.313148 14.335075 15.528672 26.876219 32.399921 37.628548 50.613748 10.75233 18.21485 19.111045 37.622876 25.082288 58.229193 5.975336 20.603247 8.958398 41.953508 8.958398 64.050782 0 44.792159-11.345872 85.704964-34.040686 122.732276s-51.067169 67.48602-85.107855 91.373057c-12.541144 8.958022-18.814274 20.904099-18.814274 35.833113 0 11.946077 4.330814 22.246677 12.992441 30.90794 8.660604 8.661264 18.96266 12.987802 30.904121 12.987802 10.15367 0 19.112069-3.28072 26.876219-9.850345 22.100248-15.528672 42.70743-33.594119 61.819499-54.200436 19.111045-20.603247 35.532729-42.999326 49.273238-67.188238 13.735392-24.185842 24.483628-50.015114 32.246755-77.489862 7.765173-27.469632 11.649807-55.840796 11.649807-85.104283 0-29.863145-3.884633-58.525951-11.649807-86.0007-7.76415-27.470655-18.660772-53.449329-32.698052-77.936023-14.033187-24.486694-30.60735-47.031153-49.718395-67.638493C847.39245 130.66008399999998 826.487474 112.593614 803.793683 97.065965z"  horiz-adv-x="1024" />

    
    <glyph glyph-name="attachment" unicode="&#59047;" d="M909.856914 510.893714l-478.500571-478.429257c-67.5712-67.536457-177.499429-67.5712-245.070629 0-67.5712 67.607771-67.5712 177.570743 0 245.1072l123.642514 123.679086 0-0.036571L664.714971 756.000914c40.356571 40.285257 105.857829 40.321829 146.143086 0.036571s40.285257-105.892571 0-146.177829l-24.643657-24.6784-0.071314 0L406.6432 205.642971c-12.999314-12.999314-34.143086-13.035886-47.213714-0.036571-12.999314 13.070629-12.999314 34.249143 0 47.250286l305.285486 305.322057-51.713829 51.713829L307.713829 304.570514c-41.499429-41.464686-41.499429-109.035886 0-150.6432 20.072229-20.106971 46.857143-31.213714 75.357257-31.213714 28.4288 0 55.213714 11.106743 75.285943 31.213714l49.428114 49.428114 0 0 354.784914 354.784914c68.856686 68.821943 68.856686 180.785371 0 249.607314-68.714057 68.785371-180.714057 68.785371-249.570743 0l-49.499429-49.464686 0 0L134.571886 329.285486c-96.142629-96.036571-96.142629-252.392229 0-348.534857 48-48.036571 111.1424-72.071314 174.213486-72.071314 63.1424 0 126.213486 24.036571 174.2848 72.071314l478.500571 478.429257L909.856914 510.893714z"  horiz-adv-x="1024" />

    
    <glyph glyph-name="qzone" unicode="&#58884;" d="M307.5072 241.59573333333333c22.528 25.6 312.832 189.7472 312.832 189.7472l-378.9824 51.2 506.88 6.0416c0 0 18.0224-15.0528 0-36.1472-18.0224-21.0944-287.232-206.336-287.232-206.336l306.176-24.576-9.3184 54.3744L1003.52 515.9253333333334l-339.6608 49.3568L512 873.5061333333333l-151.8592-308.224L20.48 515.9253333333334l245.76-239.9232-57.9584-338.8416L512 97.10933333333332l303.7184-159.9488-47.616 278.2208-460.6976-20.3776C307.5072 194.90133333333335 284.8768 215.99573333333342 307.5072 241.59573333333333zM767.0784 200.192l1.024-6.2464 49.2544 2.2528L767.0784 200.192z"  horiz-adv-x="1024" />

    
    <glyph glyph-name="certify-1" unicode="&#58927;" d="M511.555373 831.991174c-247.25943 0-447.705672-200.451358-447.705672-447.703625 0-247.252267 200.446241-447.705672 447.705672-447.705672 247.251244 0 447.697485 200.454428 447.697485 447.705672C959.252859 631.539816 758.806617 831.991174 511.555373 831.991174zM470.275201 127.07646599999998L256.172939 319.70157800000004l63.444984 64.12753 127.572514-98.91994c161.906483 219.989343 303.58118 290.61896 303.58118 290.61896l17.736966-26.605961C597.05056 415.549553 470.275201 127.07646599999998 470.275201 127.07646599999998z"  horiz-adv-x="1024" />

    
    <glyph glyph-name="twitter" unicode="&#60572;" d="M962.267429 662.820571q-38.253714-56.027429-92.598857-95.451429 0.585143-7.972571 0.585143-23.990857 0-74.313143-21.723429-148.260571t-65.974857-141.970286-105.398857-120.32-147.456-83.456-184.539429-31.158857q-154.843429 0-283.428571 82.870857 19.968-2.267429 44.544-2.267429 128.585143 0 229.156571 78.848-59.977143 1.170286-107.446857 36.864t-65.170286 91.136q18.870857-2.852571 34.889143-2.852571 24.576 0 48.566857 6.290286-64 13.165714-105.984 63.707429t-41.984 117.394286l0 2.267429q38.838857-21.723429 83.456-23.405714-37.741714 25.161143-59.977143 65.682286t-22.308571 87.990857q0 50.322286 25.161143 93.110857 69.12-85.138286 168.301714-136.265143t212.260571-56.832q-4.534857 21.723429-4.534857 42.276571 0 76.580571 53.979429 130.56t130.56 53.979429q80.018286 0 134.875429-58.294857 62.317714 11.995429 117.174857 44.544-21.138286-65.682286-81.115429-101.741714 53.174857 5.705143 106.276571 28.598857z"  horiz-adv-x="1024" />

    
    <glyph glyph-name="github" unicode="&#59630;" d="M1.2515555555555693 370.80177777777783c0-223.00444444444443 142.90488888888888-412.67199999999997 342.1297777777778-482.304 26.851555555555557-6.826666666666667 22.755555555555553 12.401777777777777 22.755555555555553 25.372444444444447l0 88.5191111111111c-154.9653333333333-18.204444444444444-161.10933333333332 84.42311111111113-171.5768888888889 101.48977777777779-21.04888888888889 35.95377777777778-70.65599999999999 45.056000000000004-55.86488888888889 62.12266666666667 35.271111111111104 18.204444444444444 71.2248888888889-4.551111111111111 112.86755555555555-66.1048888888889 30.15111111111111-44.60088888888889 88.86044444444444-37.09155555555556 118.67022222222222-29.582222222222224 6.485333333333333 26.851555555555557 20.48 50.744888888888894 39.59466666666666 69.40444444444444C249.40088888888891 168.27733333333333 182.4995555555555 266.24 182.4995555555555 382.7484444444443c0 56.43377777777778 18.659555555555553 108.43022222222223 55.18222222222222 150.30044444444445-23.210666666666665 69.17688888888888 2.1617777777777776 128.22755555555557 5.575111111111111 136.98844444444444 66.33244444444443 6.030222222222222 135.168-47.44533333333334 140.51555555555555-51.655111111111104 37.660444444444444 10.126222222222223 80.66844444444445 15.587555555555554 128.79644444444443 15.587555555555554 48.355555555555554 0 91.5911111111111-5.575111111111111 129.4791111111111-15.81511111111111 12.85688888888889 9.784888888888887 76.8 55.63733333333333 138.46755555555555 50.06222222222222 3.2995555555555556-8.76088888888889 28.103111111111108-66.56 6.257777777777777-134.7128888888889 36.977777777777774-41.984 55.86488888888889-94.32177777777778 55.86488888888889-150.9831111111111 0-116.73599999999999-67.35644444444445-214.81244444444445-228.23822222222222-243.1431111111111 26.851555555555557-26.510222222222225 43.46311111111111-63.26044444444444 43.46311111111111-103.9928888888889l0-128.4551111111111c0.9102222222222223-10.24 0-20.48 17.180444444444444-20.48C877.2266666666667-45.397333333333336 1022.7484444444444 145.63555555555558 1022.7484444444444 370.688c0 282.16888888888883-228.69333333333333 510.74844444444443-510.74844444444443 510.74844444444443C229.83111111111117 881.5502222222221 1.2515555555555693 652.9706666666666 1.2515555555555693 370.80177777777783L1.2515555555555693 370.80177777777783z"  horiz-adv-x="1024" />

    
    <glyph glyph-name="more-o" unicode="&#58914;" d="M208.016 480C154.992 480 112 437.008 112 383.96799999999996c0-53.024 42.992-96.016 96.016-96.016s96.016 42.992 96.016 96.016C304.016 437.008 261.04 480 208.016 480zM816.016 480C763.008 480 720 437.008 720 383.96799999999996c0-53.024 43.008-96.016 96.016-96.016s96.016 42.992 96.016 96.016C912.016 437.008 869.024 480 816.016 480zM512.016 480C458.992 480 416 437.008 416 383.96799999999996c0-53.024 42.976-96.016 96.016-96.016 53.04 0 96.016 42.992 96.016 96.016C608.016 437.008 565.024 480 512.016 480z"  horiz-adv-x="1024" />

    
    <glyph glyph-name="location" unicode="&#58911;" d="M511.998465 832.486454c-200.687742 0-363.370915-150.58053-363.370915-336.354608 0-280.295847 302.806537-560.618301 363.370915-560.618301 60.567447 0 363.372961 280.322453 363.372961 560.618301C875.371426 681.905924 712.68723 832.486454 511.998465 832.486454zM511.998465 294.30414199999996c-100.343359 0-181.697225 80.316234-181.697225 179.393763s81.353866 179.393763 181.697225 179.393763c100.345406 0 181.673689-80.316234 181.673689-179.393763S612.342848 294.30414199999996 511.998465 294.30414199999996z"  horiz-adv-x="1024" />

    
    <glyph glyph-name="rocket" unicode="&#58887;" d="M760.788732 456.112676c3.605634 284.84507-230.760563 414.647887-248.788732 425.464789l0 0c0 0 0 0 0 0 0 0 0 0 0 0l0 0c-14.422535-7.211268-252.394366-137.014085-248.788732-425.464789-46.873239-32.450704-97.352113-86.535211-90.140845-180.28169 7.211268-93.746479 100.957746-158.647887 137.014085-155.042254 36.056338 3.605634 25.239437 28.84507 25.239437 28.84507l10.816901 50.478873c0 0 54.084507-79.323944 68.507042-79.323944 14.422535 0 86.535211 0 97.352113 0l0 0c0 0 0 0 0 0 0 0 0 0 0 0l0 0c7.211268 0 79.323944 0 97.352113 0 18.028169 0 68.507042 79.323944 68.507042 79.323944l10.816901-50.478873c0 0-10.816901-25.239437 25.239437-28.84507 36.056338-3.605634 129.802817 61.295775 137.014085 155.042254C858.140845 369.57746499999996 807.661972 423.661972 760.788732 456.112676L760.788732 456.112676zM512 459.71831c-7.211268 0-93.746479 3.605634-104.56338 104.56338 3.605634 97.352113 97.352113 104.56338 104.56338 108.169014 7.211268 0 100.957746-10.816901 104.56338-108.169014C605.746479 463.323944 519.211268 459.71831 512 459.71831L512 459.71831zM512 459.71831M457.915493-34.25352099999998c0-10.816901-10.816901-21.633803-21.633803-21.633803l0 0c-10.816901 0-21.633803 10.816901-21.633803 21.633803l0 104.56338c0 10.816901 10.816901 21.633803 21.633803 21.633803l0 0c10.816901 0 21.633803-10.816901 21.633803-21.633803L457.915493-34.25352099999998 457.915493-34.25352099999998zM457.915493-34.25352099999998M537.239437-88.33802800000001c0-10.816901-10.816901-21.633803-21.633803-21.633803l0 0c-10.816901 0-21.633803 10.816901-21.633803 21.633803L493.971831 66.70422499999995c0 10.816901 10.816901 21.633803 21.633803 21.633803l0 0c10.816901 0 21.633803-10.816901 21.633803-21.633803L537.239437-88.33802800000001 537.239437-88.33802800000001zM537.239437-88.33802800000001M609.352113-9.014085000000023c0-10.816901-10.816901-21.633803-21.633803-21.633803l0 0c-10.816901 0-21.633803 10.816901-21.633803 21.633803L566.084507 66.70422499999995c0 10.816901 10.816901 21.633803 21.633803 21.633803l0 0c10.816901 0 21.633803-10.816901 21.633803-21.633803L609.352113-9.014085000000023 609.352113-9.014085000000023zM609.352113-9.014085000000023"  horiz-adv-x="1024" />

    
    <glyph glyph-name="certify-3" unicode="&#59010;" d="M510.545882 832.184579c-246.710938 0-446.708971-199.999057-446.708971-446.708971S263.834944-61.23438699999997 510.545882-61.23438699999997 957.255877 138.76467000000002 957.255877 385.474584 757.25682 832.184579 510.545882 832.184579zM754.661715 454.124104L400.205844 99.68972199999996c-4.02364-4.02364-9.382695-6.109138-14.762215-6.109138-3.856841 0-7.756661 1.063215-11.197016 3.231601-8.257058 5.254677-11.738345 15.533788-8.402367 24.707728l73.226768 201.330378L281.192264 322.85029199999997c-8.423857 0-16.034185 5.087878-19.265786 12.885472-3.231601 7.797593-1.438769 16.805758 4.52506 22.768563L579.205635 671.259446c6.547113 6.589069 16.638959 7.985882 24.77015 3.523243 8.132214-4.461615 12.322653-13.761422 10.321066-22.810518l-36.050054-162.319899 161.652703 0c8.423857 0 16.054651-5.045923 19.265786-12.82305C762.396887 469.031629 760.604054 460.086909 754.661715 454.124104z"  horiz-adv-x="1024" />

    
    <glyph glyph-name="about" unicode="&#58910;" d="M516.251837-62.32216200000005c-246.49809 0-446.321138 199.826118-446.321138 446.321138S269.753747 830.322162 516.251837 830.322162c246.496044 0 446.321138-199.828165 446.321138-446.323185S762.747881-62.32216200000005 516.251837-62.32216200000005zM516.251837 634.374374c-30.060643 0-54.429657-24.369014-54.429657-54.42761 0-30.062689 24.369014-54.431703 54.429657-54.431703 30.060643 0 54.429657 24.369014 54.429657 54.431703C570.681494 610.00536 546.31248 634.374374 516.251837 634.374374zM570.681494 416.656771c0 24.048719-19.497053 43.543725-43.543725 43.543725l-21.771863 0c-24.048719 0-43.543725-19.493983-43.543725-43.543725l0-261.261329c0-24.046672 19.493983-43.543725 43.543725-43.543725l21.771863 0c24.046672 0 43.543725 19.497053 43.543725 43.543725L570.681494 416.656771z"  horiz-adv-x="1024" />

    
    <glyph glyph-name="emoji" unicode="&#58958;" d="M288.0289 495.711604c0-30.777933 24.953082-55.731014 55.732613-55.731014s55.733013 24.953082 55.733013 55.731014c0 30.778532-24.953482 55.731014-55.733013 55.731014S288.0289 526.490136 288.0289 495.711604zM622.406792 495.711604c0-30.777933 24.953881-55.731014 55.733013-55.731014 30.779132 0 55.732014 24.953082 55.732014 55.731014 0 30.778532-24.953082 55.731014-55.732014 55.731014C647.360873 551.442618 622.406792 526.490136 622.406792 495.711604zM510.941765 133.48859100000004c-78.007911 0-156.033809 39.054521-200.61998 100.314787-16.763035 22.293685-27.822536 50.114822-39.05632 72.407708-5.528652 16.763634 5.525654 33.437329 16.763634 39.054521 16.763634 5.53025 27.823136-5.529251 33.440327-16.761636 5.528652-22.292885 16.763035-39.05552 27.822137-55.731014 44.586171-55.731014 100.318784-83.640092 161.558463-83.640092 61.266261 0 122.616666 27.820937 156.055794 78.0229 11.146443 16.762635 22.293685 38.968579 27.822936 55.731014 5.616192 16.761636 22.292885 22.292885 33.438329 16.761636 16.764634-5.528252 22.294884-22.290887 16.764634-33.437329-5.617192-27.822137-22.292885-50.114023-39.05652-72.407708C666.993562 172.45717000000002 588.966665 133.48859100000004 510.941765 133.48859100000004zM510.941765-60.900214000000005c-243.33382 0-445.129003 201.789787-445.129003 445.149589 0 243.344412 201.795183 445.134998 445.129003 445.134998 243.351408 0 445.14719-201.790586 445.14719-445.134998C956.088756 140.88957300000004 754.293173-60.900214000000005 510.941765-60.900214000000005zM510.941765 770.000436c-213.638553 0-385.743466-172.100316-385.743466-385.751061 0-213.665135 172.104913-385.761054 385.743466-385.761054 213.655542 0 385.756457 172.095919 385.756457 385.761054C896.698223 597.90012 724.597307 770.000436 510.941765 770.000436z"  horiz-adv-x="1024" />

    
    <glyph glyph-name="tag" unicode="&#60145;" d="M234.666667 554.66666634C199.253333 554.66666634 170.666667 583.2533333399999 170.666667 618.66666634 170.666667 654.08000034 199.253333 682.66666634 234.666667 682.66666634 270.08 682.66666634 298.666667 654.08000034 298.666667 618.66666634 298.666667 583.2533333399999 270.08 554.66666634 234.666667 554.66666634M913.493333 359.25333334000004L529.493333 743.25333334C514.133333 758.61333334 492.8 768.00000034 469.333333 768.00000034L170.666667 768.00000034C123.306667 768.00000034 85.333333 730.02666634 85.333333 682.66666634L85.333333 384.00000034C85.333333 360.53333334 94.72 339.20000034 110.506667 323.84000033999996L494.08-60.15999966000004C509.866667-75.51999966000005 531.2-85.33333366 554.666667-85.33333366 578.133333-85.33333366 599.466667-75.51999966000005 614.826667-60.15999966000004L913.493333 238.50666634000004C929.28 253.86666634000005 938.666667 275.20000034 938.666667 298.66666634 938.666667 322.56000034 928.853333 343.89333334 913.493333 359.25333334000004Z"  horiz-adv-x="1024" />

    
    <glyph glyph-name="comment-1" unicode="&#58961;" d="M839.424 793.6l-655.36 0C129.92 793.6 85.76 749.44 85.76 695.296l0-524.288c0-54.144 44.16-98.304 98.304-98.304l215.808 0 88.704-88.704c6.4-6.4 14.72-9.6 23.168-9.6 8.448 0 16.768 3.2 23.168 9.6l88.704 88.704 215.808 0c54.144 0 98.304 44.16 98.304 98.304L937.728 695.296C937.728 749.44 893.568 793.6 839.424 793.6zM872.192 171.00800000000004c0-18.048-14.72-32.768-32.768-32.768L610.048 138.24c-8.704 0-17.024-3.456-23.168-9.6l-75.136-75.136-75.136 75.136c-6.528 6.528-15.104 9.728-23.552 9.6 0 0 0 0-0.128 0L184.064 138.24c-18.048 0-32.768 14.72-32.768 32.768L151.296 695.296c0 18.048 14.72 32.768 32.768 32.768l655.36 0c18.048 0 32.768-14.72 32.768-32.768L872.192 171.00800000000004zM331.52 498.688c-27.136 0-49.152-22.016-49.152-49.152s22.016-49.152 49.152-49.152 49.152 22.016 49.152 49.152S358.656 498.688 331.52 498.688zM528.128 498.688c-27.136 0-49.152-22.016-49.152-49.152s22.016-49.152 49.152-49.152c27.136 0 49.152 22.016 49.152 49.152S555.264 498.688 528.128 498.688zM724.736 498.688c-27.136 0-49.152-22.016-49.152-49.152s22.016-49.152 49.152-49.152c27.136 0 49.152 22.016 49.152 49.152S751.872 498.688 724.736 498.688z"  horiz-adv-x="1024" />

    
    <glyph glyph-name="edit" unicode="&#58890;" d="M779.251763 10.249690999999984c19.232017 0 34.806737-16.3422 34.806737-36.524868 0-20.149922-15.573697-36.492122-34.806737-36.492122L163.834392-62.76729999999998c-19.204387 0-34.778084 16.341177-34.778084 36.492122 0 20.181645 15.57472 36.524868 34.778084 36.524868L779.251763 10.249690999999984zM162.211429 59.52495399999998l83.597977 234.30949 136.251174-143.000901L162.211429 59.52495399999998zM409.996838 177.76389200000006L272.593422 321.937502l373.534392 388.885008L783.527137 566.6458299999999 409.996838 177.76389200000006zM809.163003 596.606189L671.76061 740.780823l68.729338 72.088852c22.773679 23.864524 59.646472 23.864524 82.419128 0l54.953589-57.663304c22.773679-23.896246 22.773679-62.647829 0-86.543052L809.163003 596.606189z"  horiz-adv-x="1024" />

    
    <glyph glyph-name="right" unicode="&#58897;" d="M404.157 96.602c-19.556-19.56-51.559-19.56-71.116 0l-215.695 215.747c-19.558 19.558-19.558 51.568 0 71.13l0.578 0.578c19.556 19.56 53.579 21.876 75.604 5.143l135.024-102.569c22.025-16.731 56.895-15.314 77.488 3.155l427.077 382.991c20.591 18.468 53.45 17.582 73.018-1.969l0.506-0.506c19.569-19.551 19.578-51.549 0.019-71.111l-502.504-502.59z"  horiz-adv-x="1024" />

    
    <glyph glyph-name="share" unicode="&#59000;" d="M887.226392 890.75895c-87.398596 16.854274-172.222731-40.561834-189.071887-127.975784-3.756768-19.520862-3.628813-38.867705-0.475994-57.405871L311.872774 576.551887c-21.972486 42.368563-62.273291 74.73102-112.672329 84.445387-87.424187 16.838919-172.238086-40.592543-189.092359-128.006494-16.833801-87.413951 40.577188-172.238086 127.980903-189.087241 50.404156-9.714367 99.851207 5.35365 135.996023 36.523564l310.271158-262.989111c-9.801377-16.020005-17.120421-33.938867-20.877189-53.459729-16.849155-87.413951 40.561834-172.25344 127.975784-189.097478 87.429305-16.844037 172.279032 40.577188 189.128187 127.991139 16.833801 87.429305-40.592543 172.238086-128.021848 189.097478-50.39392 9.719485-99.835852-5.348532-135.970432-36.513328L306.319514 418.43495c9.806495 16.030241 17.105066 33.933749 20.866952 53.439256 3.761886 19.520862 3.633931 38.872824 0.48623 57.410989l385.790383 128.825408c21.967368-42.368563 62.268173-74.725902 112.651856-84.440269 87.439542-16.849155 172.279032 40.577188 189.112832 127.996257C1032.071805 789.08566 974.665934 873.914913 887.226392 890.75895zM147.53209 392.833651C87.096238 404.477584 47.399382 463.127181 59.053552 523.547679c11.638815 60.446089 70.29353 100.153182 130.724265 88.514366 60.430735-11.65417 100.12759-70.308885 88.473421-130.749856C266.612422 420.876337 207.962825 381.194836 147.53209 392.833651zM743.12312 143.034173c60.461444-11.65417 100.168536-70.303766 88.529721-130.724265-11.65417-60.446089-70.308885-100.153182-130.770328-88.499012-60.430735 11.65417-100.12759 70.29353-88.468302 130.739619C624.058144 114.976133 682.697504 154.672988 743.12312 143.034173zM966.292538 711.104575c-11.649052-60.446089-70.273057-100.148063-130.749856-88.493894-60.420498 11.633697-100.096881 70.29353-88.452948 130.729383 11.65417 60.430735 70.288412 100.137827 130.70891 88.483657C938.25497 830.184906 977.946708 771.535309 966.292538 711.104575z"  horiz-adv-x="1024" />

    
    <glyph glyph-name="share1" unicode="&#58931;" d="M751.968 271.904c-55.68 0-103.456-31.968-127.392-78.24l-257.216 156.288c10.336 19.872 16.736 42.08 16.736 66.016 0 16.352-3.328 31.776-8.32 46.432L645.28 608c26.368-29.312 64.192-48.096 106.688-48.096 79.552 0 144 64.48 144 144s-64.448 144-144 144c-79.488 0-144-64.48-144-144 0-13.952 2.592-27.168 6.304-39.904l-271.84-146.848c-26.08 26.4-62.272 42.816-102.368 42.816-79.52 0-144-64.48-144-144s64.48-144 144-144c32.064 0 61.408 10.848 85.344 28.576l282.656-171.744c0-0.32-0.096-0.608-0.096-0.864 0-79.52 64.512-144 144-144 79.552 0 144 64.48 144 144S831.52 271.904 751.968 271.904zM751.968 783.904c44.128 0 80-35.904 80-80s-35.872-80-80-80-80 35.904-80 80S707.84 783.904 751.968 783.904zM240.064 335.968c-44.096 0-80 35.904-80 80s35.904 80 80 80 80-35.904 80-80S284.192 335.968 240.064 335.968zM751.968 47.904c-44.128 0-80 35.872-80 80s35.872 80 80 80 80-35.872 80-80S796.096 47.904 751.968 47.904z"  horiz-adv-x="1024" />

    
    <glyph glyph-name="blacklist" unicode="&#58967;" d="M512.61397 673.026481L512.61397 673.026481zM298.236035 673.026481L298.236035 673.026481zM880.279804-6.12691099999995L880.279804-6.12691099999995zM455.207755-47.774557999999956L177.795543-47.774557999999956c-55.973618 0-112.049565 53.313081-112.049565 103.863296L65.745978 177.55251299999998c0 25.684421 20.874988 46.559408 46.559408 46.559408l65.490157 0L177.795543 736.367743c0 55.973618 20.568002 87.388428 83.397622 87.388428l592.890577 0c62.829619 0 88.821025-30.084541 88.821025-81.965024l0-144.794644c0-25.684421-20.772659-46.559408-46.559408-46.559408l-64.05756 0C783.988808 574.995903 729.652443 589.0148899999999 671.836914 589.0148899999999c-196.265814 0-355.386429-159.120616-355.386429-355.488758C316.348156 118.91835700000001 370.991506 17.203956999999946 455.207755-47.774557999999956L455.207755-47.774557999999956zM956.719097 233.52613199999996c0-157.074048-127.808134-284.882182-284.882182-284.882182S386.954732 76.45208400000001 386.954732 233.52613199999996 514.762866 518.408314 671.836914 518.408314C828.910962 518.5106430000001 956.719097 390.60018 956.719097 233.52613199999996L956.719097 233.52613199999996zM496.343759 233.52613199999996c0-27.935645 7.162986-53.927051 18.82842-77.360248l234.024983 234.024983c-23.433197 11.665434-49.424603 18.82842-77.360248 18.82842C575.034276 409.019286 496.343759 330.32876999999996 496.343759 233.52613199999996L496.343759 233.52613199999996zM847.330069 233.52613199999996c0 28.958929-7.776956 55.768962-20.158689 79.816129L591.918457 78.19166600000005c24.149495-12.484061 50.959528-20.158689 79.816129-20.158689C768.639552 58.03297699999996 847.330069 136.72349399999996 847.330069 233.52613199999996L847.330069 233.52613199999996z"  horiz-adv-x="1024" />

    
    <glyph glyph-name="wechat" unicode="&#58995;" d="M693.12 548.736c11.776 0 23.36-0.896 35.008-2.176-31.36 146.048-187.456 254.528-365.696 254.528-199.232 0-362.432-135.744-362.432-308.224 0-99.52 54.272-181.248 145.024-244.736l-36.224-108.992 126.72 63.488c45.312-8.896 81.664-18.112 126.912-18.112 11.392 0 22.656 0.512 33.792 1.344-7.04 24.256-11.2 49.6-11.2 76.032 0.064 158.336 136 286.848 308.096 286.848zM498.304 646.976c27.392 0 45.376-17.984 45.376-45.248 0-27.136-17.984-45.312-45.376-45.312-27.072 0-54.336 18.176-54.336 45.312 0 27.328 27.2 45.248 54.336 45.248zM244.672 556.4159999999999c-27.2 0-54.592 18.176-54.592 45.312 0 27.264 27.392 45.248 54.592 45.248s45.248-17.92 45.248-45.248c0-27.136-18.048-45.312-45.248-45.312zM1024 266.24c0 144.896-145.024 262.976-307.904 262.976-172.48 0-308.224-118.144-308.224-262.976 0-145.28 135.808-262.976 308.224-262.976 36.096 0 72.512 9.024 108.736 18.112l99.392-54.528-27.264 90.624c72.768 54.656 127.04 127.04 127.04 208.768zM616.128 311.616c-17.984 0-36.224 17.92-36.224 36.224 0 18.048 18.24 36.224 36.224 36.224 27.52 0 45.376-18.176 45.376-36.224 0-18.304-17.856-36.224-45.376-36.224zM815.488 311.616c-17.856 0-36.032 17.92-36.032 36.224 0 18.048 18.112 36.224 36.032 36.224 27.264 0 45.376-18.176 45.376-36.224 0-18.304-18.112-36.224-45.376-36.224z"  horiz-adv-x="1024" />

    
    <glyph glyph-name="jing" unicode="&#58944;" d="M944.388824 643.232113c0-16.148795-5.212722-27.405163-15.621792-33.785477-10.425444-6.395664-25.374924-9.577123-44.865837-9.577123-12.103666 0-28.237111 1.006933-48.399313 3.021823-46.400796 5.372358-76.651774 8.074909-90.75498 8.074909l0-288.379966c4.02978-2.686179 10.744715-4.02978 20.162202-4.02978 2.686179 0 14.4542 0.671289 35.287691 2.01489s41.668005 2.01489 62.517869 2.01489c21.505803 0 38.981826-2.526543 52.42807-7.563256 13.447267-5.053086 20.178575-14.965853 20.178575-29.739325 0-20.849864-13.447267-34.632775-40.340777-41.34771-16.133446-3.357468-43.698245-5.036713-82.680071-5.036713-24.87862 0-42.018999-0.847298-51.421136-2.526543-9.417487-1.694595-14.118556-5.548366-14.118556-11.592013l19.155269-170.412205 0-114.945939c0-18.147312-7.066953-30.250978-21.170159-36.295648-6.731308-2.686179-15.125489-4.02978-25.198915-4.02978-13.462616 0-21.521153 5.053086-24.207331 15.110139-2.686179 10.088776-4.02978 25.215288-4.02978 45.37749 0 18.163685-1.518586 44.881187-4.541433 80.169901-3.038196 35.304064-7.226588 71.423703-12.598946 108.390639-2.01489 24.863271-3.709485 49.406247-5.053086 73.614601-1.342578 8.058536-14.4542 12.087293-39.317471 12.087293-47.728024 0-78.986959-1.679245-93.776803-5.036713s-22.177092-8.410554-22.177092-15.125489c0-16.133446-5.884011-50.078559-17.652032-101.83534s-23.024389-86.708827-33.769105-104.872512c-8.746198-14.102183-21.185508-27.549449-37.318954-40.324404-19.506263-15.461133-37.990243-23.200398-55.450916-23.200398-24.87862 0-50.078559 8.074909-75.628468 24.207331-41.012066 26.89351-61.509912 69.568449-61.509912 128.057561 0 16.117073 1.679245 28.556383 5.053086 37.302581 6.714935 16.804734 19.138896 25.215288 37.302581 25.215288 14.102183 0 23.343661-4.541433 27.725458-13.622252 4.365424-9.081843 6.5553-21.0095 6.5553-35.783994-0.671289-11.432377-1.006933-17.828041-1.006933-19.170618 0-20.162202 4.701069-38.134529 14.118556-53.947679 9.402137-15.781428 21.505803-23.680329 36.295648-23.680329 21.505803 0 39.98876 30.587646 55.466266 91.745541 12.087293 47.728024 18.147312 85.701894 18.147312 113.939005 0 8.058536-11.432377 12.774955-34.297131 14.118556s-45.37749 2.01489-67.554582 2.01489l-39.317471 0L182.105524 233.848235c-16.133446 0-32.089859 3.181459-47.88766 9.577123s-23.695678 14.294564-23.695678 23.695678c0 18.147312 10.249435 30.250978 30.747281 36.295648s49.9179 9.081843 88.228437 9.081843c11.416004 0 31.41857-0.335644 59.991326-1.006933s50.590212-1.006933 66.051345-1.006933l77.643358 0 1.006933 92.768847c-1.342578 12.759605-2.350534 28.220738-3.021823 46.36805s-1.006933 31.258934-1.006933 39.333844L430.16211 517.189442l0 71.583338c0 14.118556-0.511653 23.200398-1.518586 27.229155-1.023306 4.02978-3.533476 7.051603-7.563256 9.081843-3.357468 0-10.088776 0.49528-20.162202 1.503237-10.088776 1.006933-17.156752 1.518586-21.185508 1.518586-6.714935-0.671289-10.744715-1.006933-12.087293-1.006933l-62.517869 0c-30.92329 0-64.196091 1.342578-99.82045 4.02978-29.579689 0-50.093908 1.679245-61.509912 5.036713-19.506263 6.043646-29.244045 18.819624-29.244045 38.325887 0 4.02978 3.357468 11.08036 10.073426 21.170159 6.714935 10.073426 13.110599 15.125489 19.170618 15.125489 25.53456-0.671289 46.704718-1.006933 63.524802-1.006933 122.333186-3.357468 186.529277-5.036713 192.589296-5.036713 12.087293 0.671289 19.155269 1.006933 21.170159 1.006933 0 5.372358-0.335644 15.286148-1.006933 29.739325s-1.006933 25.374924-1.006933 32.762171c0 20.833491 2.51017 36.790928 7.563256 47.88766 5.036713 11.096732 14.94948 16.645099 29.739325 16.645099 26.89351 0 42.355667-22.193465 46.384423-66.546625 4.02978-44.369533 6.043646-66.88227 6.043646-67.554582l154.279782-2.01489c2.686179 15.445784 4.365424 50.238195 5.036713 104.360859 0.671289 54.107315 14.118556 81.176834 40.340777 81.176834 14.774495 0 24.863271-3.533476 30.235628-10.600429s8.074909-17.652032 8.074909-31.754215c0-10.088776-0.335644-17.828041-1.006933-23.200398-2.686179-24.87862-4.02978-38.646182-4.02978-41.332361l0-78.650291c7.387247-5.372358 43.010583-9.753131 106.872053-13.110599S944.388824 666.751782 944.388824 643.232113zM662.067854 319.563432 662.067854 612.980111l-148.219763 7.051603 0-307.535235L662.067854 319.563432z"  horiz-adv-x="1024" />

    
    <glyph glyph-name="weibo" unicode="&#58935;" d="M-28.67766499555546 872.6336762311112L-28.67766499555546 872.6336762311112-28.67766499555546 872.6336762311112ZM730.7233041066667 370.89120256c-10.479819662222223 2.10038784-17.28396060444444 5.239327857777778-20.413585635555556 9.419146808888888-3.1284610844444445 4.178655004444444-3.652394097777778 8.021993244444444-1.57529088 11.530013582222221l3.1505828977777783 5.228848924444445c0.6915913955555556 0.6927553422222222 1.395989617777778 1.7417853155555554 2.110866773333333 3.1505828977777783 0.7148771555555555 1.4076324977777777 2.110866773333333 4.378914133333334 4.190297884444444 8.915007715555555 2.078267164444444 4.537257528888889 3.6535580444444444 9.072187164444443 4.725873777777777 13.609444693333332 1.0723157333333333 4.536093582222222 1.9443723377777777 10.121217137777776 2.6138419199999996 16.75769856 0.6706335288888888 6.6364814222222215 0.4913322666666667 12.927168284444445-0.5355758933333332 18.87205831111111-1.0280721066666667 5.944890026666666-3.1284610844444445 12.402071324444444-6.302328604444444 19.37386951111111-3.1750326044444446 6.9717993244444445-7.542303857777778 13.262485048888887-13.106469546666666 18.870894364444446-9.787064319999999 9.787064319999999-22.534930204444443 16.076586097777778-38.244763875555556 18.870894364444446-15.709833671111111 2.7931443200000006-31.41850225777778 2.9712804977777774-47.12833479111111 0.5355758933333332-15.708668586666667-2.438033635555555-30.546444515555553-5.576973653333333-44.51216384-9.419146808888888-13.965719324444445-3.8433382400000005-25.484090026666667-7.507374079999999-34.55744113777778-10.995602773333333l-13.608280746666665-6.301164657777778c-6.99392-2.10038784-12.758344817777777-3.4975425422222224-17.29560348444444-4.190297884444444-4.537257528888889-0.693919288888889-8.033636124444444-0.5157831111111111-10.490298595555554 0.5355758933333332-2.4578264177777776 1.05019392-4.378914133333334 2.10038784-5.7667538488888885 3.1494178133333337-1.3866757688888889 1.05019392-1.9117727288888888 3.4963785955555555-1.57529088 7.340880782222222 0.3376457955555556 3.8433382400000005 0.6822764088888889 7.161578382222221 1.03855104 9.954722702222224 0.35627463111111113 2.7908152888888886 1.227167288888889 7.160414435555555 2.6138419199999996 13.106469546666666 1.3855106844444445 5.946055111111111 2.4368696888888888 10.660286008888887 3.1494178133333337 14.145020586666668 0 8.379431822222221-0.52509696 16.233765546666667-1.57529088 23.56300344888889-1.05019392 7.329237902222222-3.31824128 15.53053127111111-6.805304888888889 24.602718435555555-3.4858996622222223 9.072187164444443-8.547090204444443 16.40142392888889-15.184735573333334 21.988876515555553-6.637646506666667 5.5874514488888885-15.01707719111111 10.122381084444443-25.13945827555556 13.608280746666665-10.122381084444443 3.4858996622222223-23.21837169777778 4.536093582222222-39.28447886222223 3.1505828977777783-16.067272248888887-1.3866757688888889-34.223288319999995-5.575808568888888-54.46921557333334-12.568564622222222-24.44553898666667-8.379431822222221-49.23803761777778-20.769859128888886-74.37633194666665-37.17361208888889-25.13829432888889-16.40142392888889-46.95951246222222-33.507247217777774-65.46132536888888-51.31513969777778-18.501812906666665-17.809057564444444-35.441141759999994-35.09301703111111-50.81449358222222-51.85304462222222-15.373351822222222-16.761191537777776-27.250326186666666-30.37995121777778-35.62975687111111-40.860934826666664l-11.530013582222221-16.75769856c-23.039070435555555-30.034155520000002-40.14372863999999-60.06714595555556-51.316304782222225-90.09780849777778-11.172575004444445-30.032990435555558-16.41190286222222-52.725101226666666-15.720311466666665-68.07866026666667l0-21.988876515555553c4.201940764444444-33.51772615111111 14.502459164444444-63.55071658666667 30.90388309333333-90.09780849777778 16.40142392888889-26.54592682666667 35.95343075555556-48.02018531555555 58.65834951111111-64.42160924444445 22.704917617777777-16.40142392888889 49.41850396444445-30.367143253333335 80.14192184888888-41.89948586666666 30.72458183111111-11.530013582222221 60.23131136-19.909445404444448 88.52368156444444-25.13945827555556 28.290041173333336-5.228848924444445 58.14489543111111-8.892885902222222 89.56223260444445-10.995602773333333 51.68538623999999-4.200776817777777 105.2825440711111-0.18978019555555556 160.78798279111112 12.032989866666666 55.50776661333333 12.225097955555555 107.18150997333333 33.35239566222222 155.02588586666667 63.38422215111111 47.84321194666666 30.032990435555558 81.54023935999999 65.99806520888889 101.09108223999998 107.89638712888889 11.86649543111111 24.446702933333334 17.977879893333334 47.49508835555556 18.33648241777778 69.14981205333333 0.35860252444444446 21.65355975111111-3.3077623466666664 39.28447886222223-10.995602773333333 52.89159566222222-7.687840426666667 13.608280746666665-17.643727075555557 25.652912355555554-29.86533205333333 36.13389710222222-12.221604977777778 10.48098360888889-23.741140764444445 18.168824035555552-34.55744113777778 23.061192248888887-10.816301511111112 4.8923682133333335-20.413585635555556 8.03247104-28.79185237333333 9.419146808888888L730.7233041066667 370.89120256 730.7233041066667 370.89120256zM411.25587740444445 45.12261120000005c-75.41721201777779-3.4870636088888887-139.48254776888888 11.184217884444445-192.19833400888888 44.010352639999994-52.71345834666667 32.82613475555556-79.07077006222222 74.3774970311111-79.06960611555556 124.65641358222223 0 49.58383331555556 26.18965333333333 92.35421184 78.56779491555555 128.30997162666665 52.379305528888885 35.95459584 116.62277859555554 55.685903928888884 192.73274595555554 59.19392426666666 76.10996735999998 3.5068563911111106 140.3546043733333-9.061708231111112 192.73158200888886-37.70802403555556 52.379305528888885-28.646315804444445 78.56779491555555-67.75032945777778 78.56779491555555-117.3143699911111 0-50.27891768888889-26.713585208888887-95.4954797511111-80.14308579555556-135.65085240888888-53.42833550222222-40.15420757333333-117.14787555555556-61.97542570666666-191.15745507555553-65.46016028444444L411.25587740444445 45.12261120000005 411.25587740444445 45.12261120000005zM380.88873415111107 335.29520924444444c-20.244762168888887-2.10038784-38.40077937777777-6.815782684444444-54.46921557333334-14.145020586666668-16.067272248888887-7.330401848888888-28.635836871111113-15.709833671111111-37.70686008888889-25.13945827555556-9.071023217777777-9.430789688888888-16.75769856-19.55317077333333-23.061192248888887-30.367143253333335-6.302328604444444-10.815136426666665-10.670763804444444-21.463779555555558-13.106469546666666-31.943599217777777-2.435705742222222-10.479819662222223-4.009832675555556-20.078267733333334-4.725873777777777-28.79301632-0.7172061866666666-8.714748586666667-1.0618367999999998-15.517724444444443-1.0397149866666666-20.41242055111111l1.0397149866666666-8.380595768888888 0-4.190297884444444c0-2.10038784 0.7032342755555555-6.289521777777778 2.110866773333333-12.568564622222222 1.4076324977777777-6.280207928888888 3.328719075555555-12.045796693333333 5.765588764444445-17.29676743111111 2.4368696888888888-5.250970737777777 6.447866311111111-11.01655950222222 12.032989866666666-17.29560348444444 5.5862875022222225-6.279042844444445 12.223934008888888-11.519535786666665 19.910609351111113-15.720311466666665 46.100262684444445-22.345151146666662 89.04761457777778-29.14929095111111 128.84554752-20.41242055111111 39.79676899555555 8.736870399999999 71.91850552888887 28.813974186666666 96.36520846222221 60.23131136 9.787064319999999 11.865330346666667 16.245408426666664 26.53544903111111 19.37503345777778 44.010352639999994s2.4252268088888886 35.104659911111106-2.110866773333333 52.89159566222222c-4.537257528888889 17.788099697777778-12.39159239111111 34.02186524444444-23.56300344888889 48.70362680888889-11.171411057777778 14.680596479999998-27.75330133333333 26.032472746666663-49.74334179555556 34.05446599111111-21.988876515555553 8.021993244444444-47.30647210666666 10.291203413333333-75.95395185777778 6.805304888888889L380.88873415111107 335.29520924444444 380.88873415111107 335.29520924444444zM343.17838222222224 137.29868572444445c-4.200776817777777-0.6915913955555556-8.21177344-0.8708926577777777-12.032989866666666-0.5355758933333332-3.8212164266666666 0.3341528177777777-7.317593884444445 1.0397149866666666-10.490298595555554 2.110866773333333-3.1738686577777777 1.0711517866666664-6.312807537777777 2.289004088888889-9.419146808888888 3.652394097777778-3.1051753244444447 1.3622249244444444-5.720181191111111 3.283311502222222-7.842691982222222 5.765588764444445-2.1213457066666663 2.4811133155555556-4.0435962311111115 4.928460799999999-5.765588764444445 7.340880782222222-1.7219925333333332 2.4124188444444443-3.1191460977777776 5.20672711111111-4.190297884444444 8.379431822222221-1.0723157333333333 3.1750326044444446-1.5974126933333332 6.4921088000000005-1.57529088 9.954722702222224 0 7.687840426666667 2.10038784 15.195214506666668 6.301164657777778 22.524452408888887 4.200776817777777 7.329237902222222 9.966365582222222 13.619923626666667 17.29560348444444 18.87205831111111 7.329237902222222 5.250970737777777 15.53053127111111 8.223416319999998 24.60388352 8.91617166222222 6.279042844444445 0.6915913955555556 12.390428444444444 0.51345408 18.335318471111112-0.53673984 5.944890026666666-1.0490299733333335 11.006080568888889-2.791979235555556 15.184735573333334-5.228848924444445 4.178655004444444-2.4368696888888888 7.843855928888889-5.230012871111111 10.995602773333333-8.380595768888888 3.1517468444444448-3.1494178133333337 5.419793066666667-6.814618737777777 6.805304888888889-10.99443768888889 1.384346737777778-4.180984035555555 2.08874496-8.717077617777779 2.110866773333333-13.609444693333332 0-7.686676480000001-2.2680462222222224-15.015913244444445-6.805304888888889-21.987712568888885-4.536093582222222-6.9729632711111105-10.647478044444446-12.906210417777777-18.335318471111112-17.798578631111113-7.687840426666667-4.8923682133333335-16.067272248888887-7.686676480000001-25.13945827555556-8.380595768888888L343.17838222222224 137.29868572444445 343.17838222222224 137.29868572444445zM432.20503893333336 212.71589774222218c-4.8935321599999995-3.4858996622222223-9.955886648888889-5.061190542222222-15.185900657777777-4.725873777777777-5.228848924444445 0.3353167644444444-8.892885902222222 2.6033641244444445-10.99443768888889 6.805304888888889l-2.11203072 4.190297884444444c-0.6915913955555556 1.4076324977777777-1.03855104 2.8047872000000003-1.03855104 4.190297884444444l0 4.190297884444444c0 2.10038784 0.3469596444444445 3.8433382400000005 1.03855104 5.230012871111111l2.11203072 4.190297884444444c0.6915913955555556 1.4076324977777777 1.7417853155555554 2.4578264177777776 3.1494178133333337 3.1494178133333337l3.1494178133333337 4.190297884444444c5.5874514488888885 4.201940764444444 10.995602773333333 5.944890026666666 16.22328775111111 5.230012871111111 5.228848924444445-0.7160411022222223 8.892885902222222-3.5091854222222225 10.995602773333333-8.380595768888888 2.0992238933333334-2.7931443200000006 2.970116551111111-5.933247146666666 2.612677973333333-9.419146808888888-0.35743857777777777-3.4858996622222223-1.4076324977777777-6.8041398044444446-3.1494178133333337-9.954722702222224-1.7429492622222222-3.1505828977777783-4.010996622222222-6.121863395555556-6.805304888888889-8.915007715555555L432.20503893333336 212.71589774222218 432.20503893333336 212.71589774222218zM804.0622500977777 431.6604177066667c4.200776817777777 0 8.045279004444444 1.05019392 11.530013582222221 3.1505828977777783 3.4858996622222223 2.0992238933333334 6.279042844444445 4.714230897777777 8.379431822222221 7.841526897777778 2.1015529244444444 3.129625031111111 3.498706488888889 6.447866311111111 4.190297884444444 9.954722702222224 0.6927553422222222 0.6927553422222222 1.0397149866666666 1.7429492622222222 1.0397149866666666 3.1505828977777783 8.378266737777778 79.61798883555555-19.55433585777778 125.01268821333333-83.79780778666667 136.18642830222223-18.860415431111107 3.4858996622222223-36.32367729777778 3.8316953599999994-52.389784462222224 1.03855104-4.8935321599999995 0-9.083830044444445-1.2178523022222223-12.568564622222222-3.652394097777778-3.4858996622222223-2.435705742222222-6.458344106666666-5.5734806755555555-8.91617166222222-9.419146808888888-2.4578264177777776-3.8433382400000005-3.675679857777778-7.855498808888888-3.652394097777778-12.032989866666666 0-6.99392 2.4473486222222225-12.926003199999998 7.340880782222222-17.797414684444444 4.8935321599999995-4.871410346666667 10.826779306666666-7.318758968888888 17.798578631111113-7.340880782222222 54.47852942222222 12.58020750222222 83.80712163555556-4.881889279999999 87.98577664-52.389784462222224 1.4076324977777777-11.865330346666667 0.7032342755555555-23.037906488888886-2.110866773333333-33.51772615111111 0-6.995085084444445 2.4473486222222225-12.927168284444445 7.340880782222222-17.798578631111113 4.8923682133333335-4.871410346666667 10.826779306666666-7.318758968888888 17.797414684444444-7.340880782222222L804.0622500977777 431.6604177066667 804.0622500977777 431.6604177066667zM786.2636714666667 727.02810112c-30.725746915555554 6.99392-71.93131235555555 5.596766435555555-123.61786254222221-4.191461831111111-0.6915913955555556 0-1.395989617777778-0.3457956977777778-2.110866773333333-1.03855104l-1.03855104-2.110866773333333-1.03855104-1.03855104c-7.686676480000001-2.10038784-13.977362204444443-6.468823039999999-18.870894364444446-13.106469546666666-4.8935321599999995-6.637646506666667-7.339715697777778-13.799224888888888-7.339715697777778-21.484736284444445 0-10.479819662222223 3.4963785955555555-19.206211128888885 10.490298595555554-26.178010453333332 6.99392-6.9729632711111105 15.373351822222222-10.469340728888888 25.13945827555556-10.490298595555554l3.1494178133333337 0c0.6927553422222222 0 2.2680462222222224 0.3457956977777778 4.727037724444444 1.03855104 2.4578264177777776 0.6915913955555556 5.071669475555555 1.2178523022222223 7.841526897777778 1.57529088 2.7710225066666667 0.35743857777777777 5.7423030044444445 1.0606728533333332 8.91617166222222 2.110866773333333 3.172703573333333 1.05019392 5.96701184 2.10038784 8.380595768888888 3.1505828977777783 2.4124188444444443 1.0490299733333335 7.1278148266666665 1.57529088 14.145020586666668 1.57529088 7.0172057599999995 0 15.574774897777779-0.5262609066666667 25.67503416888889-1.57529088 10.10025927111111-1.05019392 21.27399936-3.665200924444444 33.51889009777778-7.842691982222222 12.246055822222221-4.178655004444444 24.468824746666666-9.419146808888888 36.66947299555555-15.720311466666665 12.20064824888889-6.300000711111111 24.423417173333334-15.026392177777778 36.66947299555555-26.178010453333332 12.246055822222221-11.15045319111111 22.89469781333333-24.06714254222222 31.943599217777777-38.746575075555555 18.16766008888889-41.20556657777777 21.665202631111114-81.0151424 10.490298595555554-119.42756465777778 0-0.6927553422222222-0.17813731555555556-1.3971535644444444-0.5355758933333332-2.11203072-0.35743857777777777-0.7148771555555555-0.881371591111111-2.4578264177777776-1.5741269333333332-5.228848924444445-0.6927553422222222-2.7710225066666667-1.3971535644444444-5.384864426666667-2.110866773333333-7.842691982222222-0.7160411022222223-2.4578264177777776-1.4192753777777776-5.596766435555555-2.11203072-9.419146808888888-0.6927553422222222-3.8212164266666666-1.03855104-7.139457706666666-1.03855104-9.954722702222224 0-6.279042844444445 1.7429492622222222-11.518370702222223 5.230012871111111-15.71914752 3.4858996622222223-4.200776817777777 7.855498808888888-7.173221262222222 13.106469546666666-8.91617166222222 5.250970737777777-1.7429492622222222 11.363519146666667-2.6138419199999996 18.335318471111112-2.612677973333333 19.55317077333333 0 31.07270656 11.876974364444443 34.55744113777778 35.63092195555556 8.379431822222221 27.238683306666665 13.094826666666664 53.250198186666665 14.145020586666668 78.03105393777778 1.0513578666666665 24.78318478222222-0.6915913955555556 46.602073884444444-5.228848924444445 65.46132536888888-4.537257528888889 18.859251484444442-11.34139847111111 36.49133568-20.413585635555556 52.892759608888895-9.071023217777777 16.40142392888889-19.552006826666666 30.368308337777776-31.440624071111113 41.897157973333336-11.88745216 11.530013582222221-25.16158008888889 22.009833244444444-39.82005475555555 31.440624071111113-14.658474666666669 9.429625742222221-28.80349525333333 16.938164906666668-42.435061759999996 22.524452408888887-13.63040256 5.5862875022222225-27.775423146666665 10.122381084444443-42.43389781333333 13.608280746666665L786.2636714666667 727.0304301511111 786.2636714666667 727.02810112z"  horiz-adv-x="1024" />

    
    <glyph glyph-name="comment" unicode="&#58885;" d="M276.86000563-8.156352279999965C276.86000563-41.046372280000014 298.78514562-52.10649104000004 325.83117594-32.72352665999995L444.22718937 52.12684770999999C464.7614075 49.26202115000001 485.82119188 47.77376896999999 507.27874625 47.77376896999999 726.44316219 47.77376896999999 904.11102219 203.03236771000002 904.11102219 394.55355178 904.11102219 586.07473678 726.44316219 741.33333365 507.27874625 741.33333365 288.11433219 741.33333365 110.44647125 586.07473678 110.44647125 394.55355178 110.44647125 278.11384303 176.11805 175.07791770999995 276.86000563 112.18724334000001L276.86000563-8.156352279999965ZM245.08661281 61.290767709999955C124.52120094 136.55672333999996 50.44647125 259.56576178 50.44647125 394.55355178 50.44647125 621.14578959 256.64140156 801.33333365 507.27874625 801.33333365 757.91609 801.33333365 964.11102219 621.14578959 964.11102219 394.55355178 964.11102219 167.96131772 757.91609-12.226231030000008 507.27874625-12.226231030000008 483.23219187-12.226231030000008 459.40060625-10.571184470000048 435.93660781-7.297614469999985L444.22718937 52.12684770999999 479.1782975 3.3577977200000078 360.78228406-81.49257666000005C294.29956719-129.13846229 216.86000562-90.22301446999995 216.86000562-8.156352279999965L216.86000562 112.18724334000001 245.08661281 61.290767709999955ZM660.446 391.75133334a0.77475 0.772125 90 1 1 98.832 0 0.77475 0.772125 90 1 1-98.832 0ZM460.448 391.75133334a0.77475 0.772125 90 1 1 98.832 0 0.77475 0.772125 90 1 1-98.832 0ZM260.45 391.75133334a0.77475 0.772125 90 1 1 98.832 0 0.77475 0.772125 90 1 1-98.832 0Z"  horiz-adv-x="1024" />

    
    <glyph glyph-name="certify-2" unicode="&#58943;" d="M944.315 506.464L944.315 638.4 829.792 704.534 763.983 818.7286 632.043 818.7286 517.534 884.8554 403.336 818.7286 271.4 818.7286 205.266 704.534l-114.516-66.1305 0-131.936L24.9443 392.269l66.1269-114.198 0-131.932 114.52-65.8054 66.1305-114.516 131.936 0 114.198-65.8126 114.513 65.8126 131.614 0 65.809 114.516 114.524 65.8054 0 131.932 65.8017 114.198L944.315 506.464ZM219.546 489.969l195.346 0-34.214-120.965L219.546 489.969ZM533.993 258.086l106.345 74.3561 47.4827-179.65L533.993 258.086ZM666.189 377.855l-0.01445 0.010838-182.384-130.263-147.17-94.8137 60.0759 189.432 0.238425-0.07225 1.73039 6.28576 1.80625 5.69692-0.198688 0.148113 43.3898 157.415-0.137275 0.036125 74.0202 170.908 83.4163-192.676 214.554 0L666.189 377.855Z"  horiz-adv-x="1024" />

    
    <glyph glyph-name="qq" unicode="&#58938;" d="M944.0512 208.768c-6.8096 93.8368-69.7728 172.4672-106.176 213.12 5.056 11.8272 17.344 80.2944-30.1312 127.0272 0.064 1.1136 0.064 2.24 0.064 3.328 0 184.3072-131.1872 316.9792-295.7952 317.5808C347.3664 869.2096 216.192 736.5504 216.192 552.2432c0-1.088-0.0128-2.2016 0.064-3.328-47.4752-46.72-35.1616-115.2-30.1312-127.0272-36.3648-40.6656-99.3536-119.2832-106.176-213.12-1.2288-24.6656 2.5856-60.5952 14.6304-76.5696 14.6816-19.4688 54.9888 3.9168 83.8144 66.1376 8.0128-28.8384 26.5216-72.8448 68.416-128.704-70.0928-16-90.0864-85.12-66.5088-122.9184 16.64-26.624 54.7072-48.5248 120.3328-48.5248 116.7488 0 168.2944 31.3728 191.3088 53.2224 4.6848 4.7616 11.456 7.0656 20.0832 7.0784 8.6144-0.0128 15.3856-2.3168 20.0576-7.0784 23.0016-21.8496 74.5856-53.2224 191.2832-53.2224 65.6512 0 103.7056 21.9008 120.32 48.5248 23.5904 37.7856 3.5968 106.9184-66.4704 122.9184 41.8816 55.8592 60.4032 99.8656 68.416 128.704 28.8256-62.2208 69.1328-85.6064 83.8272-66.1376C941.4912 148.16 945.3184 184.1024 944.0512 208.768L944.0512 208.768z"  horiz-adv-x="1024" />

    
    <glyph glyph-name="menu" unicode="&#59581;" d="M128 426.666667h768v-85.333334H128zM128 682.666667h768v-85.333334H128zM128 170.666667h768v-85.333334H128z"  horiz-adv-x="1024" />

    
    <glyph glyph-name="time" unicode="&#59015;" d="M962 341.33333333999997C962 589.86147436 760.52814102 791.33333334 512 791.33333334 263.47185898 791.33333334 62 589.86147436 62 341.33333333999997 62 92.80519231999995 263.47185898-108.66666666000003 512-108.66666666000003 760.52814102-108.66666666000003 962 92.80519231999995 962 341.33333333999997ZM124.06896582 341.33333333999997C124.06896582 555.5817311999999 297.75160214 729.26436752 512 729.26436752 726.24839786 729.26436752 899.93103418 555.5817311999999 899.93103418 341.33333333999997 899.93103418 127.08493548000001 726.24839786-46.597700840000016 512-46.597700840000016 297.75160214-46.597700840000016 124.06896582 127.08493548000001 124.06896582 341.33333333999997ZM512.01353076 372.36781625000003C520.54067393 372.36781625000003 527.51724102 365.40797651 527.51724102 356.864106L527.51724102 574.07842308C527.51724102 591.21830258 513.62262266 605.1129060000001 496.48275898 605.1129060000001 479.34289443 605.1129060000001 465.44827607 591.21830258 465.44827607 574.07842308L465.44827607 356.864106C465.44827607 331.09482435999996 486.29424658 310.29885043 512.01353076 310.29885043L729.22784786 310.29885043C746.36772734 310.29885043 760.26233076 324.19346967 760.26233076 341.33333333999997 760.26233076 358.47319701000004 746.36772734 372.36781625000003 729.22784786 372.36781625000003L512.01353076 372.36781625000003Z"  horiz-adv-x="1024" />

    
    <glyph glyph-name="at" unicode="&#58886;" d="M978.931 119.309c0 2.603 2.169 5.207 3.038 7.81h-3.472c-1.014 23.999-20.716 43.072-44.873 43.072-23.392 0-42.607-17.884-44.718-40.725-44.977-55.376-107.691-94.596-179.361-109.16-16.005-10.954-83.933-24.259-154.97-24.259-1.988 0-3.975 0.010-5.959 0.031-0.011-0.003-0.383-0.004-0.755-0.004-76.527 0-149.326 15.964-215.248 44.742-73.471 31.079-133.786 90.338-166.802 164.438-13.35 15.382-32.828 78.958-32.828 147.082 0 1.52 0.009 3.037 0.029 4.552 0.985 76.642 19.853 148.883 52.619 212.827 34.993 74.080 100.63 136.462 181.388 169.479 16.684 13.522 88.983 34.204 166.113 34.204 4.33 0 8.646-0.066 12.945-0.195 104.378 0.015 186.172-28.19 244.75-82.863s75.067-122.798 75.067-204.375c0.117-3.085 0.184-6.709 0.184-10.347 0-43.928-9.743-85.582-27.186-122.916-21.202-46.36-58.232-84.457-104.21-107.198-5.598-7.402-49.634-24.322-97.327-28.491 33.247 5.13 33.215 5.13 33.182 5.13-5.43 0-10.291 2.433-13.554 6.267-3.591 4.523-5.748 10.281-5.748 16.543 0 0.753 0.031 1.499 0.093 2.237 1.793 23.568 6.009 45.505 12.434 66.477l66.966 262.769c4.022 6.384 6.44 14.134 6.523 22.441l-0.014 1.424-1.519 3.254c0 23.964-19.427 43.391-43.391 43.391s-43.391-19.427-43.391-43.391v-4.122c0.008-3.417 0.41-6.737 1.162-9.921l-4.199-14.595c-27.987 44.91-93.509 72.898-151.871 72.898-49.684 0-124.534-35.147-175.302-114.554-38.138-60.452-61.197-133.767-62.326-212.39-0.098 5.443-0.311-0.081-0.311-5.654 0-54.037 20.035-103.393 53.082-141.048 27.264-29.447 66.278-48.114 109.657-48.595-1.344 0.022-1.296 0.022-1.247 0.022 52.586 0 100.108 21.679 134.119 56.586 4.201-19.366 15.99-35.449 32.043-45.221 11.123-6.202 29.853-11.612 49.847-11.612 2.575 0 5.13 0.090 7.66 0.266 101.133 1.114 190.763 50.822 246.53 126.907 43.026 62.56 68.832 140.242 68.832 223.949 0 1.659-0.010 3.317-0.030 4.971 0.158 3.841 0.248 8.647 0.248 13.474 0 66.478-16.882 129.013-46.594 183.551-39.309 71.646-104.833 127.266-183.713 153.847-20.082 13.447-93.454 31.654-171.078 31.654-2.752 0-5.498-0.023-8.239-0.068-2.554 0.063-6.051 0.096-9.556 0.096-91.41 0-177.603-22.335-253.419-61.846-93.277-50.23-166.504-134.408-202.843-236.12-15.829-16.996-39.953-105.076-39.953-198.791 0-1.661 0.007-3.321 0.023-4.977-0.011-0.898-0.017-2.26-0.017-3.623 0-84.516 21.373-164.039 59.010-233.461 45.941-86.159 124.74-152.859 219.776-183.228 33.12-17.424 124.212-37.871 220.080-37.871 6.005 0 11.991 0.081 17.956 0.24 4.688-0.212 11.232-0.322 17.801-0.322 97.457 0 189.263 24.193 269.74 66.902 63.119 34.762 113.908 92.274 140.739 161.707-13.132-36.909-7.745-25.528-7.605-12.887zM572.785 349.935c-13.819-47.213-39.3-87.407-73.158-118.661 11.764 10.495-9.946-4.351-34.819-11.948 11.864 1.14-5.374-4.933-24.012-5.288 2.011 0.075 1.476 0.071 0.939 0.071-28.177 0-53.703 11.356-72.247 29.742-15.569 22.35-24.879 50.084-24.879 79.992 0 4.527 0.214 9.005 0.631 13.423-0.043 30.894 16.229 66.909 28.378 107.915 11.507 40.1 36.549 73.164 69.758 94.71 2.5 6.245 27.195 17.133 54.432 17.133 1.647 0 3.284-0.039 4.912-0.118 1.253 0.093 2.989 0.141 4.735 0.141 26.077 0 49.66-10.674 66.62-27.891 17.518-17.192 28.368-41.101 28.368-67.544 0-1.887-0.055-3.762-0.164-5.622-1.073-33.589-16.911-67.434-29.495-106.053z"  horiz-adv-x="1024" />

    
    <glyph glyph-name="copyright" unicode="&#58985;" d="M958.4 420.8C940.8 636.8 764.8 812.8 548.8 830.4 272 852.8 43.2 624 65.6 347.20000000000005c17.6-217.6 193.6-393.6 409.6-409.6C752-84.79999999999995 980.8 144 958.4 420.8z m-64-68.8c-14.4-185.6-164.8-336-352-352C300.8-17.600000000000023 100.8 188.79999999999995 131.2 433.6c22.4 171.2 160 308.8 331.2 331.2 244.8 30.4 451.2-169.6 432-412.8zM520 224c-88 0-160 72-160 160s72 160 160 160c52.8 0 100.8-25.6 131.2-67.2h91.2c-36.8 88-124.8 147.2-220.8 147.2-132.8 0-240-107.2-240-240s107.2-240 240-240c99.2 0 187.2 60.8 224 152H656c-30.4-44.8-80-72-136-72z"  horiz-adv-x="1024" />

    
    <glyph glyph-name="style" unicode="&#58941;" d="M817.3 344.9c-7.9-10.7-17.2-19.8-27.2-27.1-23-30.8-56-46.8-85.2-37.2-40.3 13.2-58 69.6-39.5 126.1 5.8 17.7 14.7 33 25.1 45.7l68.3 160.3 28.1 66.1c-84.6 85.9-216.1 138.1-394.6 109.6C0.8 725.9-120 246.89999999999998 134.1 22c237.7-210.5 362.4-67.1 452.6 92.1 10.2 18 34.3 28.6 54.9 26.4 65.5-7 199.8 0.4 246.3 164.7 13 46 16 96.6 9.1 147.3l-79.7-107.6z m-585.4 206c44.9 0 81.2-36.4 81.2-81.2 0-44.9-36.4-81.2-81.2-81.2-44.8 0-81.2 36.4-81.2 81.2 0 44.9 36.4 81.2 81.2 81.2z m-46.8-371.6c-44.8 0-81.2 36.4-81.2 81.2 0 44.8 36.3 81.2 81.2 81.2s81.2-36.4 81.2-81.2c0-44.9-36.4-81.2-81.2-81.2z m159.3-162.5c-44.8 0-81.2 36.3-81.2 81.2 0 44.9 36.4 81.2 81.2 81.2 44.9 0 81.2-36.4 81.2-81.2 0-44.8-36.3-81.2-81.2-81.2zM410 529.1c-44.8 0-81.2 36.3-81.2 81.2 0 44.8 36.4 81.2 81.2 81.2 44.8 0 81.2-36.4 81.2-81.2 0-44.9-36.4-81.2-81.2-81.2zM939.5 829.4c-52.6-3.4-92-54.3-92-54.3l0.4-0.2c-2.2-2.2-4.4-4.5-6.4-6.9-35.8-42.6-30.2-106.2 12.5-142 42.6-35.8 106.2-30.2 142 12.4 13 15.4 20.4 33.7 22.7 52.3 19.4 91.6-20.4 153.5-20.4 153.5s-6.2-11.4-58.8-14.8zM707.3 316.5c19.8-11.5 52.7 1.9 73.5 30l96.9 130.9c-45.1 10.4-85.6 38.4-111.7 60.2-2.4 2-4.7 4-6.9 5.9l-63-148c-13.5-32-8.6-67.5 11.2-79zM844.3 614.6c-16 13.4-27.4 30.2-34.2 48.5l-28.9-68c25.6-25.4 81.6-69.7 132.7-69l52.9 71.4c-39.5-17.4-87.2-12.5-122.5 17.1z"  horiz-adv-x="1024" />

    
    <glyph glyph-name="renzheng" unicode="&#58893;" d="M512 896C229.2 896 0 666.8 0 384s229.2-512 512-512 512 229.2 512 512S794.8 896 512 896z m311.6-317.8c-0.7-2.5-1.9-4.9-3.3-7.3L515.8 85.7H357.7L307 533.2c-1.8 17.4-6.2 30.4-12.9 39-6.8 8.6-17.2 14.1-31.1 16.5l6.6 17.9h143.7c15.4 0 26.9-3.7 34.4-11s12.2-19.4 14-36.3l28.1-311.2L648 546.5c1.5 3.1 2.7 6.3 3.9 9.6 1.1 3.3 1.6 6 1.6 7.8 0 7-2.8 12.6-8.3 16.8-5.5 4.1-13.6 6.8-24.2 8l5.5 17.9H790c10.6 0 19.1-1.9 25.3-5.7 6.2-3.8 9.4-8.8 9.4-14.9 0.1-2.8-0.3-5.4-1.1-7.8z"  horiz-adv-x="1024" />

    
    <glyph glyph-name="email" unicode="&#59036;" d="M775.314286-3.657143000000019h-526.628572c-102.4 0-182.857143 80.457143-182.857143 182.857143v402.285714c0 102.4 80.457143 182.857143 182.857143 182.857143h526.628572c102.4 0 182.857143-80.457143 182.857143-182.857143v-402.285714c0-95.085714-80.457143-182.857143-182.857143-182.857143z m-526.628572 702.171429c-58.514286 0-109.714286-51.2-109.714285-109.714286v-402.285714c0-58.514286 51.2-109.714286 109.714285-109.714286h526.628572c58.514286 0 109.714286 51.2 109.714285 109.714286v402.285714c0 58.514286-51.2 109.714286-109.714285 109.714286h-526.628572zM512 332.79999999999995c-36.571429 0-80.457143 14.628571-109.714286 43.885714l-204.8 204.8c-14.628571 14.628571-14.628571 36.571429 0 51.2s36.571429 14.628571 51.2 0l204.8-204.8c29.257143-29.257143 80.457143-29.257143 117.028572 0l204.8 204.8c14.628571 14.628571 36.571429 14.628571 51.2 0s14.628571-36.571429 0-51.2l-204.8-204.8c-29.257143-29.257143-73.142857-43.885714-109.714286-43.885714z"  horiz-adv-x="1024" />

    
    <glyph glyph-name="wordpress" unicode="&#59231;" d="M72.557714 384c0 63.414857 13.714286 124.013714 38.290286 178.870857l209.700571-574.281143c-146.870857 71.424-247.990857 221.696-247.990857 395.446857z m736 22.272c0-37.705143-15.433143-81.152-33.718857-142.299429l-43.446857-146.285714-158.866286 471.990857s26.294857 1.718857 50.285715 4.571429c23.442286 2.852571 20.553143 37.705143-2.852572 35.986286-71.424-5.156571-117.138286-5.705143-117.138286-5.705143s-42.861714 0.585143-115.419428 5.705143c-23.990857 1.718857-26.843429-34.304-2.852572-35.986286 22.272-2.304 45.714286-4.571429 45.714286-4.571429l68.571429-187.428571-96-288-160 475.428571s26.294857 1.718857 50.285714 4.571429c23.442286 2.852571 20.553143 37.705143-2.852571 35.986286-70.838857-5.156571-117.138286-5.705143-117.138286-5.705143-8.009143 0-17.700571 0.585143-28.013714 0.585143a437.613714 437.613714 0 0 0 366.848 198.290285c114.285714 0 218.294857-43.995429 296.557714-115.419428h-5.705143c-42.861714 0-73.728-37.156571-73.728-77.714286 0-35.986286 21.138286-66.304 43.446857-102.838857 17.152-29.147429 35.986286-66.852571 35.986286-121.161143z m-289.133714-60.562286l135.424-369.700571a21.577143 21.577143 0 0 1 2.852571-6.290286c-45.714286-16.018286-94.281143-25.161143-145.700571-25.161143-42.861714 0-84.553143 6.290286-124.013714 18.285715z m377.709714 249.161143A438.125714 438.125714 0 0 0 951.405714 384c0-162.304-87.990857-303.433143-218.843428-379.428571l134.290285 387.437714c22.272 64 33.718857 113.152 33.718858 157.696 0 16.018286-1.133714 30.866286-3.437715 45.129143zM512 896c282.294857 0 512-229.705143 512-512s-229.705143-512-512-512S0 101.705143 0 384 229.705143 896 512 896z m0-1000.557714c269.129143 0 488.557714 219.428571 488.557714 488.557714S781.129143 872.557714 512 872.557714 23.442286 653.129143 23.442286 384s219.428571-488.557714 488.557714-488.557714z"  horiz-adv-x="1024" />

    
    <glyph glyph-name="qqqun" unicode="&#58930;" d="M343.05365333333333 85.85898666666662c-12.268657777777777 1.05472-34.78527999999999 8.14648888888889-47.729777777777784 43.78396444444444-16.11093333333333 44.217457777777774-10.658702222222223 105.52433777777775 15.366826666666666 172.5986133333333 10.656426666666666 27.436373333333332 27.12007111111111 55.34833777777777 49.051875555555554 83.19658666666666-3.288177777777778 10.106879999999999-4.94592 20.342328888888893-4.94592 30.607359999999996 0 22.54848 7.826773333333333 55.27893333333333 43.296995555555554 87.78524444444444 9.751893333333333 68.13809777777777 41.771235555555556 130.74204444444445 91.04497777777777 177.48195555555557 17.345422222222222 16.452266666666667 36.37475555555555 30.474239999999998 56.634026666666664 41.92142222222222-46.26432 48.07793777777777-110.00718222222223 77.79328000000001-180.3923911111111 77.79328000000001-132.38613333333333 0-241.22254222222222-105.02030222222221-254.56412444444445-239.69792-26.216675555555554-20.837262222222222-41.509546666666665-45.08444444444444-41.509546666666665-71.08152888888888 0-12.45070222222222 3.752391111111111-24.4736 10.31168-35.967431111111104-17.758435555555554-20.540302222222223-42.102328888888884-52.32640000000001-56.653368888888885-89.79228444444445-23.529244444444444-60.639004444444446-27.893759999999997-114.28977777777777-15.116515555555551-149.35608888888888 11.491555555555555-31.633635555555554 31.641599999999997-28.80512 48.21447111111111 0.42780444444444443 4.265528888888889 7.512746666666665 10.705351111111112 17.932515555555554 17.855146666666666 29.279573333333328 12.255004444444445-37.94716444444444 32.750933333333336-72.66076444444444 59.733333333333334-102.0928-16.54897777777778-5.032391111111111-30.87815111111111-10.994346666666667-39.0144-17.857422222222223-30.70862222222222-26.149546666666666-32.062577777777776-56.50432-6.02112-79.74911999999999 33.66343111111111-30.107875555555555 170.00220444444443-44.835271111111105 249.21770666666666-0.5779911111111111 8.953173333333332-0.7600355555555556 17.931377777777776-1.2515555555555555 27.09390222222222-1.2674844444444446 5.4431288888888885 10.422044444444445 13.86951111111111 21.475555555555555 26.677475555555553 32.38229333333333l0.11832888888888889 0.1024a78.87075555555553 78.87075555555553 0 0 0 7.955342222222221 5.8595555555555565 307.21024000000006 307.21024000000006 0 0 0-13.844479999999999 22.21056c-10.426595555555556-10.709902222222222-24.692053333333334-19.539057777777774-42.78044444444445-17.990542222222224zM1002.4049777777777 293.25311999999997h0.022755555555555553c-13.627164444444444 35.148231111111116-36.48853333333333 64.94094222222222-53.145599999999995 84.23424 6.178133333333333 10.782720000000001 9.671111111111111 22.06151111111111 9.671111111111111 33.7408 0 24.38712888888889-14.366719999999999 47.13358222222222-38.93816888888889 66.68060444444444-12.516693333333333 126.31608888888887-114.63793777777778 224.85902222222217-238.78542222222222 224.85902222222217-124.19072 0-226.29034666666666-98.52017777777777-238.80704000000003-224.85902222222217-24.59420444444444-19.54702222222222-38.93930666666666-42.29347555555555-38.93930666666666-66.68060444444444 0-11.680426666666667 3.5180088888888887-22.95808 9.672248888888888-33.7408-16.658204444444443-19.269404444444444-39.49454222222222-49.08714666666666-53.145599999999995-84.23424-22.072888888888887-56.88433777777778-26.166613333333334-107.21507555555556-14.180124444444443-140.11050666666662 10.77816888888889-29.67438222222222 29.682346666666668-27.022222222222222 45.23008 0.40163555555555547 4.000426666666667 7.046257777777778 10.042026666666667 16.823182222222222 16.749226666666665 27.465955555555553 11.497244444444444-35.597653333333334 30.72455111111111-68.16312888888888 56.03669333333333-95.77244444444443-15.524977777777776-4.721777777777778-28.96782222222222-10.315093333333333-36.60117333333333-16.75264-28.806257777777777-24.530488888888886-30.07715555555555-53.006791111111106-5.647928888888889-74.81230222222221 31.581297777777777-28.244195555555557 159.47889777777775-42.05909333333333 233.79057777777777-0.5415822222222222 8.539022222222222-0.7259022222222222 17.098524444444443-1.1958044444444444 25.842346666666668-1.1958044444444444 9.322951111111111 0 18.534399999999998 0.46990222222222217 27.625244444444444 1.2663466666666667 74.26503111111111-41.61194666666667 202.36970666666667-27.773155555555554 233.97489777777776 0.4710399999999999 24.40533333333333 21.80551111111111 23.111679999999996 50.28067555555556-5.668408888888889 74.81230222222221-7.891626666666666 6.673066666666667-21.936355555555558 12.38016-38.15082666666665 17.24416 25.122133333333334 27.514879999999998 44.16284444444444 59.86986666666666 55.594097777777776 95.28092444444444 6.712888888888889-10.645048888888889 12.747662222222223-20.420835555555556 16.749226666666665-27.46709333333333 15.547733333333332-27.399964444444443 34.42915555555555-30.053262222222223 45.23008-0.40163555555555547 11.98648888888889 32.896568888888886 7.891626666666666 83.22616888888888-14.178986666666667 140.11164444444444z"  horiz-adv-x="1024" />

    
    <glyph glyph-name="link" unicode="&#58920;" d="M607.934 478.143c-6.18 6.178-12.766 11.747-19.554 16.91l-0.012-0.011c-6.986 6.72-16.472 10.857-26.93 10.857-21.465 0-38.865-17.4-38.865-38.864a38.697 38.697 0 0 1 9.072-24.947h-0.001a39.02 39.02 0 0 1 9.59-8.256c3.665-3.022 7.262-5.998 10.625-9.361l3.204-3.205c40.28-40.23 28.255-109.54-12.025-149.82l-171.88-171.83c-40.279-40.23-105.762-40.23-146.042 0l-3.23 3.232c-40.281 40.278-40.281 105.81 0 145.99l75.936 75.91c9.742 7.734 15.997 19.67 15.997 33.073 0 23.313-18.899 42.211-42.212 42.211a42.01 42.01 0 0 1-23.725-7.297c-0.021 0.045-0.044 0.088-0.066 0.134l-0.81-0.757a42.455 42.455 0 0 1-8.026-7.51l-78.913-73.842c-74.178-74.23-74.178-195.633 0-269.759l3.204-3.203c74.179-74.127 195.53-74.127 269.708 0l171.83 171.88c74.075 74.175 80.356 191.185 6.281 265.312l-3.156 3.153zM855.62 730.196l-3.204 3.204c-74.178 74.178-195.529 74.178-269.707 0l-171.83-171.88c-74.178-74.178-78.263-181.296-4.085-255.523l3.153-3.104c3.369-3.368 6.866-6.543 10.435-9.589a36.872 36.872 0 0 1 8.993-7.31l0.077-0.062 0.012 0.01a36.508 36.508 0 0 1 18.258-4.87c20.263 0 36.69 16.428 36.69 36.69 0 5.719-1.31 11.132-3.646 15.958-4.85 10.89-13.93 17.52-20.21 23.802l-3.154 3.103c-40.278 40.278-24.983 98.796 15.295 139.074l171.931 171.83c40.18 40.281 105.685 40.281 145.966 0l3.206-3.152c40.279-40.282 40.279-105.839 0-146.068l-75.687-75.738c-10.297-7.629-16.974-19.865-16.974-33.663 0-23.123 18.746-41.87 41.87-41.87a41.668 41.668 0 0 1 21.946 6.211c0.048-0.082 0.093-0.157 0.14-0.24l1.175 1.083a42.09 42.09 0 0 1 9.529 8.793l79.766 73.603c74.233 74.177 74.233 195.53 0.055 269.708z"  horiz-adv-x="1024" />

    
    <glyph glyph-name="female" unicode="&#58974;" d="M774.4 800c-48 35.2-108.8 51.2-172.8 51.2-105.6 0-208-51.2-268.8-150.4-89.6-134.4-57.6-313.6 60.8-416l-32-51.2-188.8 121.6S128 384 108.8 352c-22.4-35.2 22.4-64 22.4-64l188.8-121.6-105.6-163.2s-19.2-32 16-51.2c38.4-22.4 57.6 12.8 57.6 12.8l102.4 160 185.6-121.6s48-28.8 70.4 6.4c19.2 28.8-25.6 57.6-25.6 57.6L432 192l32 48c44.8-22.4 92.8-32 137.6-32 105.6 0 208 51.2 268.8 150.4 96 147.2 51.2 345.6-96 441.6z m35.2-400c-44.8-67.2-118.4-108.8-201.6-108.8-44.8 0-92.8 12.8-131.2 38.4-112 73.6-147.2 220.8-73.6 332.8 44.8 64 121.6 105.6 201.6 108.8 44.8 0 92.8-12.8 131.2-38.4 112-73.6 147.2-220.8 73.6-332.8z"  horiz-adv-x="1024" />

    
    <glyph glyph-name="male" unicode="&#58975;" d="M889.6 800h-240s-35.2 0-38.4-41.6c0-19.2 16-38.4 38.4-38.4h140.8l-179.2-179.2C556.8 582.4 489.6 608 416 608 240 608 96 464 96 288s144-320 320-320 320 144 320 320c0 73.6-25.6 140.8-67.2 195.2l179.2 179.2v-140.8c0-22.4 19.2-38.4 38.4-38.4 22.4 0 38.4 19.2 38.4 41.6V764.8h3.2C924.8 800 889.6 800 889.6 800zM416 48c-131.2 0-236.8 105.6-236.8 236.8 0 131.2 105.6 236.8 236.8 236.8s236.8-105.6 236.8-236.8c0-131.2-105.6-236.8-236.8-236.8z"  horiz-adv-x="1024" />

    
    <glyph glyph-name="sex-unknown" unicode="&#58976;" d="M512 656c-70.4 0-128-57.6-128-128s57.6-128 128-128 128 57.6 128 128-57.6 128-128 128z m0-208c-44.8 0-80 35.2-80 80S467.2 608 512 608s80-35.2 80-80S556.8 448 512 448zM947.2 201.60000000000002c3.2 22.4-9.6 41.6-32 48h-9.6c-19.2 0-35.2-12.8-38.4-32l-28.8-137.6-137.6 208c70.4 54.4 115.2 140.8 115.2 236.8C816 694.4 678.4 832 512 832s-304-137.6-304-304c0-96 44.8-182.4 115.2-236.8l-48-73.6-105.6 89.6c-9.6 6.4-16 9.6-25.6 9.6s-22.4-3.2-28.8-12.8l-3.2-3.2c-12.8-16-9.6-38.4 3.2-51.2l118.4-99.2-99.2-153.6c-12.8-19.2-6.4-44.8 12.8-54.4 6.4-3.2 12.8-6.4 19.2-6.4 12.8 0 25.6 6.4 35.2 19.2l92.8 144 105.6-89.6c6.4-6.4 16-9.6 25.6-9.6s22.4 3.2 28.8 12.8l3.2 3.2c12.8 16 9.6 38.4-3.2 51.2l-115.2 99.2 54.4 83.2c35.2-16 76.8-25.6 118.4-25.6s83.2 9.6 118.4 25.6l137.6-214.4-147.2 32c-19.2 0-35.2-12.8-38.4-32-3.2-22.4 9.6-41.6 32-48l243.2-51.2c19.2 0 35.2 12.8 38.4 32 3.2 3.2 51.2 233.6 51.2 233.6zM288 528c0 124.8 99.2 224 224 224s224-99.2 224-224-99.2-224-224-224-224 99.2-224 224z"  horiz-adv-x="1024" />

    
    <glyph glyph-name="visitors" unicode="&#58979;" d="M882.036364-27.53939366999998L791.272727 5.042424330000017c125.672727 88.436364 209.454545 235.054545 209.454546 400.290909 0 269.963636-218.763636 488.727273-488.727273 488.727273S23.272727 675.29696933 23.272727 405.33333333c0-165.236364 81.454545-311.854545 209.454546-400.290909l-90.763637-32.581818c-16.290909-4.654545-23.272727-20.945455-18.618181-34.909091l2.327272-4.654546c4.654545-13.963636 20.945455-20.945455 37.236364-16.290909l128 46.545455c16.290909 2.327273 27.927273 16.290909 27.927273 34.909091 0 13.963636-6.981818 23.272727-18.618182 30.254545-2.327273 2.327273-6.981818 2.327273-9.309091 4.654546-134.981818 79.127273-223.418182 230.4-209.454546 402.618181 16.290909 204.8 176.872727 372.363636 379.345455 395.636364 16.290909 2.327273 32.581818 2.327273 48.872727 2.327273 16.290909 0 32.581818 0 48.872728-2.327273 202.472727-23.272727 365.381818-190.836364 379.345454-395.636364 11.636364-169.890909-74.472727-321.163636-209.454545-402.618181-2.327273-2.327273-4.654545-2.327273-9.309091-4.654546-11.636364-6.981818-18.618182-16.290909-18.618182-30.254545 0-16.290909 11.636364-30.254545 27.927273-34.909091l128-46.545455c16.290909-4.654545 32.581818 2.327273 37.236363 16.290909l2.327273 4.654546c9.309091 13.963636 2.327273 30.254545-13.963636 34.909091zM372.363636 556.60606033m-51.2 0a51.2 51.2 0 1 1 102.4 0 51.2 51.2 0 1 1-102.4 0ZM674.909091 556.60606033m-51.2 0a51.2 51.2 0 1 1 102.4 0 51.2 51.2 0 1 1-102.4 0ZM751.709091 405.33333333c4.654545 11.636364-6.981818 23.272727-18.618182 23.272727s-23.272727-9.309091-23.272727-23.272727c0-48.872727-39.563636-88.436364-88.436364-88.436364-48.872727 0-86.109091 39.563636-86.109091 88.436364 0 11.636364-9.309091 23.272727-23.272727 23.272727-11.636364 0-23.272727-9.309091-23.272727-23.272727 0-48.872727-39.563636-88.436364-88.436364-88.436364-48.872727 0-88.436364 39.563636-88.436364 88.436364 0 11.636364-9.309091 23.272727-23.272727 23.272727s-23.272727-9.309091-23.272727-23.272727c0-74.472727 60.509091-132.654545 132.654545-132.654545 46.545455 0 86.109091 23.272727 109.381819 58.181818 23.272727-34.909091 65.163636-58.181818 111.70909-58.181818 74.472727 0 132.654545 60.509091 132.654546 132.654545z"  horiz-adv-x="1024" />

    
    <glyph glyph-name="postlist" unicode="&#58986;" d="M800 768H224C134.4 768 64 697.6 64 608v-448c0-89.6 70.4-160 160-160h576c89.6 0 160 70.4 160 160V608c0 89.6-70.4 160-160 160z m96-608c0-54.4-41.6-96-96-96H224c-54.4 0-96 41.6-96 96V608c0 54.4 41.6 96 96 96h576c54.4 0 96-41.6 96-96v-448zM240 512h64v-64h-64zM368 512h384v-64h-384zM432 320h352v-64h-352zM304 320h64v-64h-64z"  horiz-adv-x="1024" />

    
    <glyph glyph-name="heart" unicode="&#58982;" d="M512 0c-6.4 0-16 3.2-22.4 6.4-28.8 22.4-275.2 214.4-326.4 288-57.6 76.8-67.2 118.4-67.2 192C96 640 208 768 348.8 768c60.8 0 118.4-22.4 163.2-64 44.8 41.6 102.4 64 163.2 64 140.8 0 252.8-128 252.8-281.6 0-70.4-9.6-112-67.2-192-51.2-70.4-300.8-265.6-326.4-288-6.4-3.2-16-6.4-22.4-6.4zM358.4 704C256 704 160 595.2 160 473.6c0-38.4 0-83.2 48-150.4 38.4-51.2 214.4-185.6 304-259.2 89.6 73.6 265.6 208 304 259.2 48 67.2 48 115.2 48 150.4C864 595.2 768 704 665.6 704c-54.4 0-89.6-25.6-134.4-64-12.8-9.6-19.2-9.6-19.2-9.6s-6.4 0-16 6.4C448 675.2 412.8 704 358.4 704z"  horiz-adv-x="1024" />

    
    <glyph glyph-name="view" unicode="&#58981;" d="M512 576c-105.6 0-192-86.4-192-192s86.4-192 192-192 192 86.4 192 192-86.4 192-192 192z m0-320c-70.4 0-128 57.6-128 128s57.6 128 128 128 128-57.6 128-128-57.6-128-128-128z m428.8 156.8C883.2 492.8 713.6 704 512 704 310.4 704 140.8 492.8 83.2 412.8c-12.8-19.2-12.8-41.6 0-60.8 57.6-76.8 227.2-288 428.8-288 201.6 0 371.2 211.2 428.8 291.2 12.8 16 12.8 41.6 0 57.6z m-64-48C835.2 307.20000000000005 688 128 512 128S188.8 307.20000000000005 147.2 364.79999999999995c-9.6 12.8-9.6 25.6 0 38.4C188.8 460.8 336 640 512 640s323.2-179.2 364.8-236.8c9.6-12.8 9.6-25.6 0-38.4z"  horiz-adv-x="1024" />

    
    <glyph glyph-name="Bbi" unicode="&#58983;" d="M512 832c246.4 0 448-198.4 448-448 0-246.4-201.6-448-448-448-249.6 0-448 201.6-448 448C64 633.6 262.4 832 512 832z m28.8-300.8v-70.4h172.8v-230.4h-57.6v176h-115.2V0c198.4 16 355.2 182.4 355.2 384 0 214.4-172.8 384-384 384C297.6 768 128 598.4 128 384c0-201.6 156.8-368 355.2-384V403.2h-115.2v-176H310.4v233.6h172.8v67.2l-169.6-16-3.2 28.8-3.2 28.8 403.2 35.2 3.2-28.8 3.2-28.8-176-16z"  horiz-adv-x="1024" />

    
    <glyph glyph-name="download" unicode="&#58984;" d="M662.4 764.8c131.2-12.8 233.6-124.8 233.6-259.2v-243.2c0-144-118.4-262.4-265.6-262.4h-243.2c-147.2 0-265.6 115.2-265.6 262.4v243.2c0 134.4 105.6 246.4 236.8 259.2 41.6 3.2 32 64-6.4 60.8-156.8-16-288-156.8-288-320v-243.2c0-179.2 147.2-323.2 326.4-323.2h243.2c179.2 0 326.4 144 326.4 323.2v243.2c0 163.2-131.2 304-294.4 320-38.4 3.2-44.8-54.4-3.2-60.8z m-172.8-566.4c12.8-12.8 32-12.8 44.8 0l256 240c28.8 28.8-16 73.6-44.8 44.8l-201.6-192V806.4c0 41.6-64 41.6-64 0v-515.2L278.4 480c-28.8 28.8-76.8-16-44.8-44.8l256-236.8z"  horiz-adv-x="1024" />

    
    <glyph glyph-name="search" unicode="&#58991;" d="M448 768c176 0 320-144 320-320 0-73.6-25.6-147.2-73.6-204.8l-19.2-22.4-22.4-19.2C595.2 153.60000000000002 521.6 128 448 128 272 128 128 272 128 448S272 768 448 768m0 64C236.8 832 64 659.2 64 448s172.8-384 384-384c92.8 0 179.2 35.2 246.4 89.6l211.2-208c6.4-6.4 12.8-9.6 22.4-9.6s16 3.2 22.4 9.6c12.8 16 12.8 35.2 0 48l-208 208c54.4 67.2 89.6 153.6 89.6 246.4 0 211.2-172.8 384-384 384z"  horiz-adv-x="1024" />

    
    <glyph glyph-name="filter" unicode="&#58992;" d="M512-64c-57.6 0-112 54.4-112 112V387.2v3.2L115.2 723.2c-16 19.2-22.4 41.6-16 64C108.8 816 131.2 832 160 832h697.6c22.4 0 48-9.6 60.8-32 16-25.6 12.8-54.4-6.4-73.6l-288-339.2v-342.4c0-54.4-54.4-108.8-112-108.8z m316.8 832H195.2c-12.8 0-22.4-16-12.8-25.6l272-320c6.4-6.4 9.6-16 9.6-22.4v-352c0-22.4 25.6-48 48-48s48 25.6 48 48v352c0 9.6 3.2 16 9.6 22.4l272 320c9.6 9.6 0 25.6-12.8 25.6z"  horiz-adv-x="1024" />

    
    <glyph glyph-name="more" unicode="&#59001;" d="M512 81.45454500000005c-39.563636 0-69.818182 30.254545-69.818182 69.818182s30.254545 69.818182 69.818182 69.818182 69.818182-30.254545 69.818182-69.818182-30.254545-69.818182-69.818182-69.818182z m0 232.727273c-39.563636 0-69.818182 30.254545-69.818182 69.818182s30.254545 69.818182 69.818182 69.818182 69.818182-30.254545 69.818182-69.818182-30.254545-69.818182-69.818182-69.818182z m0 232.727273c-39.563636 0-69.818182 30.254545-69.818182 69.818182s30.254545 69.818182 69.818182 69.818182 69.818182-30.254545 69.818182-69.818182-30.254545-69.818182-69.818182-69.818182z"  horiz-adv-x="1024" />

    
    <glyph glyph-name="close" unicode="&#59003;" d="M556.8 384l316.8 316.8c12.8 12.8 12.8 32 0 44.8-12.8 12.8-32 12.8-44.8 0L512 428.8 195.2 745.6c-12.8 12.8-32 12.8-44.8 0-12.8-12.8-12.8-32 0-44.8l316.8-316.8-316.8-316.8c-12.8-12.8-12.8-32 0-44.8 12.8-12.8 32-12.8 44.8 0l316.8 316.8 316.8-316.8c12.8-12.8 32-12.8 44.8 0 12.8 12.8 12.8 32 0 44.8L556.8 384z"  horiz-adv-x="1024" />

    
    <glyph glyph-name="settings" unicode="&#59006;" d="M512 546.909091c-90.763636 0-162.909091-72.145455-162.909091-162.909091s72.145455-162.909091 162.909091-162.909091 162.909091 72.145455 162.909091 162.909091-72.145455 162.909091-162.909091 162.909091z m0-279.272727c-65.163636 0-116.363636 51.2-116.363636 116.363636s51.2 116.363636 116.363636 116.363636 116.363636-51.2 116.363636-116.363636-51.2-116.363636-116.363636-116.363636zM830.836364 514.327273c-11.636364 27.927273-25.6 53.527273-44.218182 79.127272 13.963636 27.927273 16.290909 60.509091 9.309091 90.763637-9.309091 34.909091-30.254545 62.836364-62.836364 79.127273-58.181818 32.581818-132.654545 16.290909-172.218182-37.236364-16.290909 2.327273-32.581818 4.654545-48.872727 4.654545s-32.581818-2.327273-48.872727-4.654545c-39.563636 53.527273-114.036364 69.818182-172.218182 34.909091-30.254545-18.618182-53.527273-46.545455-62.836364-79.127273-9.309091-30.254545-4.654545-62.836364 9.309091-90.763636-18.618182-23.272727-32.581818-48.872727-44.218182-79.127273C125.672727 509.672727 69.818182 453.818182 69.818182 384s55.854545-125.672727 123.345454-130.327273c11.636364-27.927273 25.6-53.527273 44.218182-79.127272-13.963636-27.927273-16.290909-60.509091-9.309091-90.763637 9.309091-34.909091 30.254545-62.836364 62.836364-79.127273 20.945455-11.636364 44.218182-18.618182 65.163636-18.618181 41.890909 0 81.454545 18.618182 107.054546 53.527272 13.963636-2.327273 27.927273-4.654545 44.218182-4.654545s34.909091 2.327273 51.2 4.654545c25.6-34.909091 65.163636-53.527273 107.054545-53.527272 23.272727 0 44.218182 4.654545 65.163636 18.618181 30.254545 18.618182 53.527273 46.545455 62.836364 79.127273 9.309091 30.254545 4.654545 62.836364-9.309091 90.763637 18.618182 23.272727 32.581818 48.872727 44.218182 79.127272 69.818182 4.654545 125.672727 60.509091 125.672727 130.327273s-55.854545 125.672727-123.345454 130.327273z m0-216.436364h-9.309091c-9.309091 0-18.618182 2.327273-27.927273 4.654546-11.636364-46.545455-34.909091-86.109091-65.163636-121.018182 9.309091-9.309091 16.290909-18.618182 20.945454-30.254546 0-2.327273 4.654545-11.636364 4.654546-13.963636 2.327273-13.963636 2.327273-27.927273 0-41.890909-6.981818-23.272727-20.945455-41.890909-41.890909-53.527273-32.581818-18.618182-72.145455-13.963636-100.072728 9.309091-13.963636 11.636364-23.272727 25.6-27.927272 44.218182-23.272727-6.981818-48.872727-9.309091-74.472728-9.309091s-44.218182 4.654545-67.490909 9.309091c-4.654545-16.290909-13.963636-32.581818-27.927273-44.218182-27.927273-23.272727-67.490909-27.927273-100.072727-9.309091-20.945455 11.636364-34.909091 30.254545-41.890909 53.527273-4.654545 13.963636-4.654545 27.927273 0 41.890909 0 2.327273 2.327273 11.636364 4.654546 13.963636 4.654545 11.636364 11.636364 20.945455 20.945454 30.254546-30.254545 34.909091-55.854545 74.472727-67.490909 121.018182-9.309091-2.327273-18.618182-4.654545-27.927273-4.654546h-9.309091c-41.890909 6.981818-74.472727 41.890909-74.472727 86.109091s32.581818 79.127273 74.472727 86.109091h9.309091c9.309091 0 18.618182-2.327273 27.927273-4.654546 13.963636 46.545455 37.236364 86.109091 67.490909 121.018182-9.309091 9.309091-16.290909 18.618182-20.945454 30.254546 0 2.327273-4.654545 11.636364-4.654546 13.963636-2.327273 13.963636-2.327273 27.927273 0 41.890909 6.981818 23.272727 20.945455 41.890909 41.890909 53.527273 32.581818 18.618182 72.145455 13.963636 100.072727-9.309091 13.963636-11.636364 23.272727-25.6 27.927273-44.218182 23.272727 6.981818 44.218182 9.309091 69.818182 9.309091s46.545455-4.654545 69.818182-9.309091c4.654545 16.290909 13.963636 32.581818 25.6 44.218182 16.290909 13.963636 37.236364 20.945455 58.181818 20.945455 13.963636 0 30.254545-4.654545 44.218182-11.636364 20.945455-11.636364 34.909091-30.254545 41.890909-53.527273 4.654545-13.963636 4.654545-27.927273 0-41.890909 0-2.327273-2.327273-11.636364-4.654546-13.963636-4.654545-11.636364-11.636364-20.945455-20.945454-30.254546 30.254545-34.909091 55.854545-74.472727 67.490909-121.018182 9.309091 2.327273 18.618182 4.654545 27.927273 4.654546h9.309091c41.890909-6.981818 74.472727-41.890909 74.472727-86.109091s-32.581818-79.127273-74.472727-86.109091z"  horiz-adv-x="1024" />

    
    <glyph glyph-name="tags" unicode="&#59008;" d="M359.25354693 534.23769008a42.36670718 39.54225971 45.00099999999994 1 1-55.92217585 55.92022434 42.36670718 39.54225971 45.00099999999994 1 1 55.92217585-55.92022434ZM531.77112986 802.01817687c-25.4200248 22.59557732-42.36670718 36.71781225-76.26007317 33.89336477l-276.7958192 0c-33.89336598 0-62.13783703-16.94668239-81.90896689-39.54225971-22.59557732-19.77112986-36.71781226-50.84004837-36.71781224-81.90896689l0-276.7958192c0-33.89336598 8.47334119-50.84004837 31.06891851-76.26007316L478.10663402-22.72038821000001c67.78673076-59.31338957 169.46682873-59.31338957 237.25355948 2.82444747l200.53574724 200.53574724c64.96228451 64.96228451 62.13783703 169.46682873 2.82444747 237.25355948l-386.94925835 384.12481089zM879.1781285 375.52665880999996c42.36670718-45.19115466 39.54225971-110.15343794-2.82444747-158.16904007L675.81793379 16.821871500000043c-45.19115466-36.71781225-112.97788541-39.54225971-158.16904006-2.82444625L130.69963659 403.77112986c-11.29778866 14.12223613-14.12223613 28.24447105-14.12223614 48.0156009l0 265.49803175c0 14.12223613 8.47334119 28.24447105 16.9466836 39.54225971 11.29778866 11.29778866 25.4200248 22.59557732 39.54225972 22.59557732l265.49803053 1e-8c19.77112987 0 39.54225971-5.64889373 53.66449584-16.9466836L879.1781285 375.52665880999996z"  horiz-adv-x="1024" />

    
    <glyph glyph-name="error" unicode="&#59016;" d="M614.4 183.85454500000003l-88.436364 46.545455c-6.981818 4.654545-18.618182 4.654545-25.6 0l-90.763636-44.218182c-11.636364-6.981818-16.290909-20.945455-11.636364-32.581818 6.981818-11.636364 20.945455-16.290909 34.909091-9.309091l81.454546 39.563636 79.127272-41.890909c11.636364-6.981818 27.927273-2.327273 32.581819 9.309091 6.981818 11.636364 0 25.6-11.636364 32.581818zM439.854545 428.218182c0 6.981818-2.327273 11.636364-6.981818 16.290909l-2.327272 2.327273-109.381819 88.436363c-9.309091 6.981818-25.6 6.981818-32.581818-2.327272-9.309091-9.309091-6.981818-23.272727 2.327273-32.581819l88.436364-72.145454-88.436364-72.145455c-9.309091-6.981818-11.636364-23.272727-2.327273-32.581818 9.309091-9.309091 23.272727-9.309091 32.581818-2.327273l109.381819 88.436364c4.654545 4.654545 9.309091 11.636364 9.30909 18.618182zM512 826.181818C267.636364 826.181818 69.818182 628.363636 69.818182 384s197.818182-442.181818 442.181818-442.181818 442.181818 197.818182 442.181818 442.181818S756.363636 826.181818 512 826.181818z m0-837.818182c-218.763636 0-395.636364 176.872727-395.636364 395.636364S293.236364 779.636364 512 779.636364s395.636364-176.872727 395.636364-395.636364-176.872727-395.636364-395.636364-395.636364zM735.418182 532.945455c-9.309091 9.309091-23.272727 9.309091-32.581818 2.327272l-107.054546-88.436363c-4.654545-4.654545-6.981818-9.309091-6.981818-16.290909s2.327273-13.963636 6.981818-16.29091l107.054546-88.436363c9.309091-6.981818 25.6-6.981818 32.581818 2.327273 9.309091 9.309091 6.981818 23.272727-2.327273 32.581818l-88.436364 69.818182 88.436364 72.145454c9.309091 6.981818 11.636364 20.945455 2.327273 30.254546z"  horiz-adv-x="1024" />

    
    <glyph glyph-name="scan" unicode="&#59018;" d="M930.909091 197.81818199999998c-13.963636 0-23.272727-9.309091-23.272727-23.272727v-69.818182c0-39.563636-30.254545-69.818182-69.818182-69.818182h-116.363637c-13.963636 0-23.272727-9.309091-23.272727-23.272727s9.309091-23.272727 23.272727-23.272728h116.363637c65.163636 0 116.363636 51.2 116.363636 116.363637v69.818182c0 13.963636-9.309091 23.272727-23.272727 23.272727zM93.090909 570.181818c13.963636 0 23.272727 9.309091 23.272727 23.272727v69.818182c0 39.563636 30.254545 69.818182 69.818182 69.818182h116.363637c13.963636 0 23.272727 9.309091 23.272727 23.272727s-9.309091 23.272727-23.272727 23.272728H186.181818c-65.163636 0-116.363636-51.2-116.363636-116.363637v-69.818182c0-13.963636 9.309091-23.272727 23.272727-23.272727zM721.454545 733.090909h116.363637c39.563636 0 69.818182-30.254545 69.818182-69.818182v-69.818182c0-13.963636 9.309091-23.272727 23.272727-23.272727s23.272727 9.309091 23.272727 23.272727v69.818182c0 65.163636-51.2 116.363636-116.363636 116.363637h-116.363637c-13.963636 0-23.272727-9.309091-23.272727-23.272728s9.309091-23.272727 23.272727-23.272727zM302.545455 34.90909099999999H186.181818c-39.563636 0-69.818182 30.254545-69.818182 69.818182v69.818182c0 13.963636-9.309091 23.272727-23.272727 23.272727s-23.272727-9.309091-23.272727-23.272727v-69.818182c0-65.163636 51.2-116.363636 116.363636-116.363637h116.363637c13.963636 0 23.272727 9.309091 23.272727 23.272728s-9.309091 23.272727-23.272727 23.272727zM949.527273 407.272727H76.8c-16.290909 0-30.254545-9.309091-30.254545-23.272727s13.963636-23.272727 27.927272-23.272727h875.054546c13.963636 0 27.927273 9.309091 27.927272 23.272727s-13.963636 23.272727-27.927272 23.272727z"  horiz-adv-x="1024" />

    
    <glyph glyph-name="delete" unicode="&#59019;" d="M535.272727 221.090909v186.181818c0 13.963636-9.309091 23.272727-23.272727 23.272728s-23.272727-9.309091-23.272727-23.272728v-186.181818c0-13.963636 9.309091-23.272727 23.272727-23.272727s23.272727 9.309091 23.272727 23.272727zM395.636364 221.090909v186.181818c0 13.963636-9.309091 23.272727-23.272728 23.272728s-23.272727-9.309091-23.272727-23.272728v-186.181818c0-13.963636 9.309091-23.272727 23.272727-23.272727s23.272727 9.309091 23.272728 23.272727zM442.181818 756.363636h139.636364c13.963636 0 23.272727 9.309091 23.272727 23.272728s-9.309091 23.272727-23.272727 23.272727h-139.636364c-13.963636 0-23.272727-9.309091-23.272727-23.272727s9.309091-23.272727 23.272727-23.272728zM674.909091 221.090909v186.181818c0 13.963636-9.309091 23.272727-23.272727 23.272728s-23.272727-9.309091-23.272728-23.272728v-186.181818c0-13.963636 9.309091-23.272727 23.272728-23.272727s23.272727 9.309091 23.272727 23.272727zM791.272727 69.81818199999998c0-25.6-34.909091-58.181818-58.181818-58.181818h-442.181818c-23.272727 0-58.181818 32.581818-58.181818 58.181818V570.181818H186.181818v-505.018182c0-51.2 48.872727-100.072727 97.745455-100.072727h453.818182c48.872727 0 100.072727 48.872727 100.072727 100.072727V570.181818h-46.545455v-500.363636zM884.363636 686.545455H139.636364c-13.963636 0-23.272727-9.309091-23.272728-23.272728s9.309091-23.272727 23.272728-23.272727h744.727272c13.963636 0 23.272727 9.309091 23.272728 23.272727s-9.309091 23.272727-23.272728 23.272728z"  horiz-adv-x="1024" />

    
    <glyph glyph-name="player-play" unicode="&#59051;" d="M830.577778 668.444444H657.066667l74.903703 70.162963c11.377778 11.377778 11.377778 29.392593 0 39.822223-5.688889 5.688889-13.274074 8.533333-21.807407 8.533333-7.585185 0-15.17037-2.844444-21.807407-8.533333L570.785185 668.444444H456.059259L338.488889 778.42963c-5.688889 5.688889-13.274074 8.533333-21.807408 8.533333-7.585185 0-15.17037-2.844444-21.807407-8.533333-11.377778-11.377778-11.377778-29.392593 0-39.822223L369.777778 668.444444H193.422222C117.57037 668.444444 56.888889 600.177778 56.888889 514.8444440000001v-332.8c0-85.333333 60.681481-153.6 136.533333-153.6h42.666667c0-25.6 22.755556-47.407407 50.251852-47.407407s50.251852 20.859259 50.251852 47.407407h353.659259c0-25.6 22.755556-47.407407 50.251852-47.407407s50.251852 20.859259 50.251852 47.407407h38.874074c75.851852 0 136.533333 69.214815 136.533333 153.6V514.8444440000001c0.948148 85.333333-59.733333 153.6-135.585185 153.6zM698.785185 321.42222200000003L425.718519 162.133333c-22.755556-13.274074-41.718519-2.844444-41.718519 24.651852V506.311111c0 26.548148 18.962963 37.925926 41.718519 24.651852l273.066666-160.237037c22.755556-14.222222 22.755556-35.081481 0-49.303704z"  horiz-adv-x="1024" />

    
    <glyph glyph-name="player-stop" unicode="&#59052;" d="M830.577778 668.444444H657.066667l74.903703 70.162963c4.740741 4.740741 8.533333 11.377778 8.533334 17.066667 0.948148 8.533333-1.896296 16.118519-8.533334 22.755556-5.688889 5.688889-13.274074 8.533333-21.807407 8.533333-7.585185 0-15.17037-2.844444-21.807407-8.533333L570.785185 668.444444H456.059259L338.488889 778.42963c-5.688889 5.688889-13.274074 8.533333-21.807408 8.533333-7.585185 0-15.17037-2.844444-21.807407-8.533333-11.377778-11.377778-11.377778-29.392593 0-39.822223L369.777778 668.444444H193.422222C117.57037 668.444444 56.888889 600.177778 56.888889 514.8444440000001v-332.8c0-85.333333 60.681481-153.6 136.533333-153.6h42.666667c0-25.6 22.755556-47.407407 50.251852-47.407407s50.251852 20.859259 50.251852 47.407407h353.659259c0-25.6 22.755556-47.407407 50.251852-47.407407s50.251852 20.859259 50.251852 47.407407h38.874074c75.851852 0 136.533333 69.214815 136.533333 153.6V514.8444440000001c0.948148 85.333333-59.733333 153.6-135.585185 153.6zM455.111111 212.38518499999998c0-25.6-20.859259-46.459259-47.407407-46.459259s-47.407407 20.859259-47.407408 46.459259V479.762963c0 25.6 20.859259 46.459259 47.407408 46.459259s47.407407-20.859259 47.407407-46.459259v-267.377778z m208.592593 0c0-25.6-20.859259-46.459259-47.407408-46.459259s-47.407407 20.859259-47.407407 46.459259V479.762963c0 25.6 20.859259 46.459259 47.407407 46.459259s47.407407-20.859259 47.407408-46.459259v-267.377778z"  horiz-adv-x="1024" />

    
    <glyph glyph-name="bilibili" unicode="&#58901;" d="M360.9031111111111 712.0440888888888l-90.90085925925928 88.1095111111111s-14.199466666666664 17.476266666666668 9.8304 37.258429629629624c24.151229629629626 19.6608 25.36485925925926 10.922666666666666 33.49617777777778 5.461333333333333 8.131318518518519-5.461333333333333 135.19834074074075-130.82927407407408 135.19834074074075-130.82927407407408h-87.62405925925925zM662.8541629629631 708.767288888889l90.90085925925928 88.1095111111111s14.199466666666664 17.476266666666668-9.8304 37.258429629629624c-24.02986666666667 19.6608-25.36485925925926 10.922666666666666-33.49617777777778 5.461333333333333-8.131318518518519-5.461333333333333-135.19834074074075-130.82927407407408-135.19834074074075-130.82927407407408h87.62405925925925zM1004.0054518518518 545.6554666666667c-3.2768000000000006 137.98968888888885-123.1834074074074 164.2040888888889-123.1834074074074 164.2040888888889s-614.3393185185184 4.975881481481481-742.4986074074072 0c-128.15928888888888-36.166162962962964-118.3288888888889-164.2040888888889-118.3288888888889-164.2040888888889s1.6990814814814814-274.2802962962963-0.12136296296296296-413.11952592592587c13.835377777777778-138.83922962962964 120.8775111111111-160.92728888888888 120.8775111111111-160.92728888888888s42.71976296296296-0.8495407407407407 73.91004444444442-0.8495407407407407c3.2768000000000006-8.98085925925926 5.704059259259259-52.55016296296296 54.24924444444444-52.55016296296296 48.42382222222221 0 54.24924444444444 52.55016296296296 54.24924444444444 52.55016296296296s354.8653037037037 1.6990814814814814 384.35650370370365 1.6990814814814814c1.6990814814814814-14.806281481481477 8.98085925925926-54.977422222222216 57.52604444444444-54.24924444444444 48.42382222222221 0.8495407407407407 51.70062222222222 57.52604444444444 51.70062222222222 57.52604444444444s16.384 1.6990814814814814 65.65736296296296 0c114.93072592592591 21.35988148148148 121.60568888888888 156.07277037037034 121.60568888888888 156.07277037037034s-1.5777185185185185 275.85801481481485 0 413.8477037037037z m-98.91081481481481-439.2125629629629c0-21.723970370370367-17.23354074074074-39.44296296296295-38.47205925925926-39.44296296296295H167.2078222222222c-21.238518518518518 0-38.47205925925926 17.59762962962963-38.47205925925926 39.44296296296295V569.6853333333333c0 21.723970370370367 17.23354074074074 39.44296296296295 38.47205925925926 39.44296296296295h699.4147555555554c21.238518518518518 0 38.47205925925926-17.59762962962963 38.47205925925926-39.44296296296295v-463.2424296296296zM202.40308148148148 438.85605925925927l205.34613333333334 39.44296296296295 15.53445925925926-77.18684444444445-203.64705185185187-39.44296296296295zM841.3790814814815 438.85605925925927l-205.34613333333334 39.44296296296295-15.655822222222222-77.18684444444445 203.7684148148148-39.44296296296295zM423.28367407407404 247.4666666666667s45.14702222222222-81.31318518518519 95.26992592592593 26.33576296296296c48.42382222222221-105.10032592592592 101.82352592592594-27.91348148148148 101.82352592592594-27.91348148148148l30.340740740740742-19.782162962962964s-56.6765037037037-91.14358518518517-131.4360888888889-22.20942222222222c-63.2301037037037-68.93416296296296-129.7370074074074 21.9666962962963-129.7370074074074 21.9666962962963l33.7389037037037 21.602607407407408z"  horiz-adv-x="1024" />

    
    <glyph glyph-name="gantanhao" unicode="&#58898;" d="M449.716 14.933c0-34.399 27.894-62.293 62.294-62.293 34.399 0 62.293 27.894 62.293 62.293 0 34.399-27.894 62.294-62.293 62.294-34.416 0-62.294-27.894-62.294-62.294zM591.736 745.009c0 44.031-35.697 79.726-79.743 79.726s-79.725-35.696-79.725-79.726c0-1.597 0.067-3.177 0.149-4.758h-0.018l17.301-508.563c0-34.399 27.894-62.293 62.293-62.293s62.293 27.894 62.293 62.293l17.301 508.563h-0.018c0.1 1.581 0.167 3.16 0.167 4.758z"  horiz-adv-x="1024" />

    
    <glyph glyph-name="i" unicode="&#58888;" d="M421.5996875 471.6v-508.0003125c0-29.1196875 29.04-58.1596875 58.08-58.1596875s58.0003125 29.04 58.0003125 58.08V471.6c0 29.04-28.959375 58.08-58.0003125 58.08s-58.08-29.04-58.08-58.08zM392.5596875 776.4796875a87.12 87.12 0 1 1 174.1603125 0 87.12 87.12 0 0 1-174.159375 0z"  horiz-adv-x="1024" />

    
    <glyph glyph-name="finish" unicode="&#59059;" d="M512 828.8c-246.4 0-448-201.6-448-448s201.6-448 448-448 448 201.6 448 448-201.6 448-448 448z m230.4-339.2l-281.6-262.4-9.6-6.4c-6.4-3.2-9.6-3.2-12.8-3.2-3.2 0-9.6 3.2-12.8 3.2l-9.6 6.4-134.4 134.4c-12.8 12.8-12.8 32 0 44.8 12.8 12.8 32 12.8 44.8 0l112-112 259.2 240c12.8 9.6 32 9.6 44.8-3.2 12.8-12.8 12.8-32 0-41.6z"  horiz-adv-x="1024" />

    
    <glyph glyph-name="notice" unicode="&#59060;" d="M512 832C265.6 832 64 630.4 64 384s201.6-448 448-448 448 201.6 448 448S758.4 832 512 832z m0-688c-25.6 0-48 22.4-48 48s22.4 48 48 48 48-22.4 48-48-22.4-48-48-48z m41.6 185.6c0-32-12.8-57.6-41.6-57.6s-41.6 25.6-41.6 57.6l-16 236.8c0 32 25.6 57.6 54.4 57.6 28.8 0 57.6-25.6 57.6-57.6l-12.8-236.8z"  horiz-adv-x="1024" />

    
    <glyph glyph-name="download-o" unicode="&#59061;" d="M512 832C265.6 832 64 630.4 64 384s201.6-448 448-448 448 201.6 448 448S758.4 832 512 832z m182.4-521.6l-160-144c-12.8-12.8-32-12.8-44.8 0l-160 140.8c-32 28.8 16 73.6 44.8 44.8l105.6-92.8V582.4c0 41.6 64 41.6 64 0v-323.2l105.6 96c28.8 28.8 73.6-16 44.8-44.8z"  horiz-adv-x="1024" />

    
    <glyph glyph-name="code" unicode="&#58906;" d="M293.0688 140.79999999999995c-12.0832 0-24.2688 4.2496-33.9968 12.9024L0 384l273.4592 243.0976C294.5536 645.7855999999999 326.912 643.9936 345.7024 622.848c18.7904-21.1456 16.896-53.504-4.2496-72.2944L154.112 384l172.9536-153.7024c21.1456-18.7904 23.04-51.1488 4.2496-72.2944C321.2288 146.5856 307.1488 140.79999999999995 293.0688 140.79999999999995zM751.0528 140.90239999999994L1024.512 384l-259.072 230.2976c-21.1456 18.7904-53.504 16.896-72.2432-4.2496-18.7904-21.1456-16.896-53.504 4.2496-72.2944L870.4 384l-187.3408-166.5024c-21.1456-18.7904-23.04-51.1488-4.2496-72.2944C688.896 133.78560000000004 702.976 128 717.056 128 729.1392 128 741.3248 132.2496 751.0528 140.90239999999994zM511.5392 68.35199999999998l102.4 614.4c4.6592 27.904-14.1824 54.272-42.0864 58.9312-28.0064 4.7104-54.3232-14.1824-58.88-42.0864l-102.4-614.4c-4.6592-27.904 14.1824-54.272 42.0864-58.9312C455.5264 25.8048 458.2912 25.600000000000023 461.1072 25.600000000000023 485.6832 25.600000000000023 507.392 43.3664 511.5392 68.35199999999998z"  horiz-adv-x="1025" />

    
    </font>
</defs>
</svg>
